<svg width="130" height="130" viewBox="0 0 130 130" fill="none" xmlns="http://www.w3.org/2000/svg">
<circle cx="65" cy="65" r="64.5847" fill="white"/>
<path d="M15.8419 106.629C25.8231 95.3117 44.0989 87.732 65 87.732C85.9011 87.732 104.177 95.3153 114.158 106.629C108.151 113.833 100.635 119.629 92.1398 123.606C83.645 127.584 74.3798 129.646 65 129.646C55.6202 129.646 46.355 127.584 37.8602 123.606C29.3654 119.629 21.8486 113.833 15.8419 106.629ZM41.5856 50.8228C41.5856 36.7214 52.0578 25.2922 65 25.2922C77.9422 25.2922 88.4253 36.7214 88.4253 50.8228C88.4253 64.9242 77.9531 76.3533 65.0108 76.3533C52.0686 76.3533 41.5856 64.9278 41.5856 50.8228Z" fill="#CBD2D8"/>
</svg>
