<svg width="162" height="52" viewBox="0 0 162 52" fill="none" xmlns="http://www.w3.org/2000/svg">
<path fill-rule="evenodd" clip-rule="evenodd" d="M0.068446 39.0822L0.258372 39.1582V39.2417L0.623534 39.4395L1.04926 39.6219L1.69536 40.0097L1.86272 40.1541L2.21247 40.1161L2.29596 40.2985L3.86985 40.4049V40.4734L4.86571 40.8611L6.2038 40.9754L6.24178 40.8231L6.41666 40.9145L7.66337 40.8991L7.85365 40.8231L8.804 40.6787L8.9864 40.5952L10.0582 40.5418L10.1726 40.3064V40.3594L10.9785 41.2033L12.5294 41.5681L12.8183 41.5301L13.0387 41.6065L13.4644 41.5835L14.9623 41.9258L15.9811 41.9863V42.435L16.2699 42.8227L16.5512 43.2334L18.505 43.2484V43.3474L18.7257 43.4308V44.541L18.8017 44.579V45.8942L20.5357 45.9744L21.6907 45.4914L24.0017 44.9058L23.9516 44.6912L23.2947 44.6245V44.598L22.9829 44.5636L23.2639 44.0375L22.9145 44.1074L21.8427 43.4918L21.8405 43.4839L21.8272 43.4764L21.7491 43.17L21.6982 43.1574L21.265 43.2105L19.3564 43.1194V43.0947L18.7787 43.066L19.0751 42.5565L19.159 42.5264L19.1056 42.435L18.7938 41.8039L18.8472 41.7889L18.7028 41.7125L19.2579 41.3252L19.1819 41.2642L19.3345 40.9876L19.2274 40.9371V40.9152L19.1969 40.8991L19.2088 40.8163L18.5204 40.5572V40.5332L18.4824 40.5192L18.4999 40.4429L16.5358 40.4354L16.2545 40.0251L16.1026 39.8197V39.8083L15.9581 39.6144L16.0907 39.3567L16.0037 39.1962L14.9469 39.1277L13.4493 38.7859L13.0232 38.8085L12.8029 38.7325L12.514 38.7705L10.9631 38.4057L10.2181 37.6223V37.6026L10.1571 37.5388L10.1919 37.479L10.1726 37.4858L10.0507 37.7442L8.97888 37.7975L8.79648 37.881L7.84613 38.0255L7.65584 38.1014L6.40913 38.1165L6.23426 38.0179L6.21598 38.0907L6.2038 38.1545H6.20021L6.19627 38.1699L4.85818 38.0559L3.90031 37.6832V37.6721L3.86985 37.6607L3.90031 37.6058V37.5997L2.28844 37.5008L2.20494 37.3184L1.85519 37.3564L1.68784 37.212L1.04173 36.8243L0.61565 36.6419L0.258372 36.4516V36.429V36.3681L0.0533953 36.2846L0 35.8814V38.6945L0.0533953 39.0973L0.068446 39.0822V39.0822ZM23.0059 47.2742V47.2781L22.7246 47.1943L21.9491 47.3236L21.9333 47.3147L21.9262 47.3161L21.4402 47.0434L21.318 47.0649L21.3062 47.0567L21.303 47.0574L21.0862 46.9058L20.2383 46.9664L19.1969 46.5557V49.3763L20.2383 49.7869L21.0901 49.726L21.318 49.8855L21.4474 49.8629L21.9491 50.1442L22.7246 50.0149L23.1732 50.1442L23.5989 50.2127L23.9867 50.3571V50.8588L25.3552 51.3684L26.2672 51.0491L26.7693 50.9197L27.3774 50.661L27.6892 50.3417L28.5026 50.2051L28.685 50.0224L29.2932 49.7715L30.5323 48.9961L31.8403 48.6388V47.5136L32.1442 47.4451V47.3541L32.365 47.3007L32.4255 47.1713L32.8817 47.0119L34.2348 46.6621L34.8279 46.7761L35.5045 46.5023L35.6037 46.4797L36.2119 46.4342L36.2803 46.3503L38.0517 46.3654L38.0746 46.2973H39.3213L39.4886 46.0235L40.8873 45.6888V45.2631L41.5033 45.0656L41.6552 44.7309L42.2634 44.4496L42.3318 44.1074V43.925L42.3852 43.8946L43.2521 42.6099V41.7509L43.442 41.781L43.9512 41.5226L44.4912 41.2567L44.6736 41.1198L44.856 40.9829L45.1298 40.8081L45.2133 40.7246L45.2438 40.7092L46.3006 40.4734L46.6958 40.1695L47.3878 39.9111L47.7985 39.6449L48.0339 39.3786V36.5659L47.7985 36.8318L47.3803 37.1056L46.6883 37.3639L46.293 37.6682L45.2363 37.9036L45.2058 37.919L45.1219 38.01L44.8485 38.1774L44.6661 38.3143L44.4837 38.4512L43.9437 38.7174L43.4345 38.9758L43.1607 38.9303L43.1453 38.9833L43.1413 38.9962L43.1833 39.0747L43.2367 39.7663L43.1377 39.914V39.9566L42.3777 41.0894L42.2064 41.1919L42.3092 41.2718L42.2408 41.6065L42.1874 41.6316V41.6746L41.6402 41.9258L41.4879 42.2601L40.7354 42.4959L40.6633 42.5894L40.8572 42.8457L40.6594 42.8926V42.9292L39.4808 43.2105L39.3138 43.4842H38.0667L38.0441 43.5527L36.2724 43.5373L36.204 43.6211L35.5959 43.6666L35.4973 43.6896L34.8204 43.963L34.2273 43.849L32.8742 44.1988L32.418 44.3661L32.3571 44.4952L32.0682 44.5636L32.1138 44.6095L32.0682 44.6202V44.6474L31.6275 44.7539V44.8635L31.8099 45.8107L31.6275 45.8605V45.8866L30.5248 46.1909L29.2856 46.9664L28.6775 47.2172L28.4951 47.3996L27.6817 47.544L27.3699 47.8633L26.7614 48.1217L26.2597 48.251L25.3473 48.5703L24.4429 48.236V48.2116L23.9562 48.0307L24.4031 47.7153L24.0168 47.5745V47.5551L23.576 47.3921L23.1503 47.3161L23.0059 47.2742V47.2742ZM4.64532 34.2663V32.6426L4.64819 32.6362L4.64532 32.6351V32.6426L4.75928 32.6806L4.72882 32.9619L5.42832 33.0988L5.41327 33.5095L4.86571 34.2696L4.64532 34.2663V34.2663ZM10.7122 31.9596V30.5065L10.7176 30.5051L10.7122 30.4986V30.5065L11.2444 31.1372L11.5561 31.1601L11.4727 31.3046L11.4952 31.7912L11.3737 31.8292L11.1534 31.9052H11.0011L10.7807 31.9585L10.7122 31.9596V31.9596ZM18.376 31.411L18.4064 31.3805L18.4215 31.2515L18.7332 31.0992L18.9156 30.8333V31.641L18.7483 31.6468V31.5554L18.376 31.411V31.411ZM18.5171 30.4334L18.5204 30.4302V30.4377H18.5125L18.5204 30.4474V30.4377L18.5171 30.4334ZM18.9092 30.8279L18.9156 30.8179V30.8333L18.9092 30.8279ZM30.5553 32.1105V32.404L30.1826 32.3613L29.8787 32.3911V32.3893L30.0461 32.3309L30.5478 32.118L30.547 32.1141L30.5553 32.1105V32.1105Z" fill="#366045"/>
<path fill-rule="evenodd" clip-rule="evenodd" d="M1.30766 35.7446L1.85522 35.7066L1.8778 35.2579L2.43289 34.9387L3.52765 34.7183L4.09779 34.6803L4.56186 34.5814L5.45881 34.5889L6.21135 33.5551L6.21924 33.0154L6.0139 32.8706L5.53478 32.7796L5.55772 32.5517L5.44376 32.5137V32.3539L5.64121 32.4069L5.82362 32.3539L6.13538 32.3463L6.27227 32.2854L6.64496 32.3539L6.62203 32.179L5.73259 32.1715L5.75517 31.8747L8.05114 31.8597L8.31739 31.7228L8.72806 31.6619L8.77357 31.7683L8.7811 31.8368L8.94845 31.8977L9.03195 31.9661L9.00937 32.0955L8.97138 32.1485L9.07029 32.2019L9.38958 32.0955L9.61749 32.179L9.78484 32.3159L11.0316 32.2854L11.2218 32.2399H11.4498L11.8604 32.0955L12.3467 31.9661L12.537 31.9206L12.6739 31.7837L12.8638 31.7077L13.6468 31.6773L13.5483 31.5709L13.2211 31.5784L13.0767 31.6164L12.552 31.601L12.2786 31.5934L12.2707 31.3655L12.3621 31.1982L12.5216 31.0917L12.3392 30.9244L11.8529 30.8943L11.6701 30.6735L11.807 30.6431L12.0883 30.7649H12.6889L12.8638 30.9093L13.6547 30.8864L14.065 31.0233L14.5441 30.7649L15.3802 30.742L15.8288 30.5291L16.0266 30.5445L16.1406 30.5976L16.4828 30.5825L16.5663 30.5521L16.7487 30.5367L16.7871 30.4377L16.5283 30.3542L16.8021 30.2708L17.5546 30.2858L17.6535 30.4152L17.4407 30.5291L17.3113 30.5671L17.3418 30.6205L17.8134 30.651L17.9123 30.7724L18.0717 30.9018L18.0033 31.0007L17.6385 31.1752L17.6156 31.358L17.5245 31.449L17.5851 31.5784L17.9578 31.7228L17.9503 31.8747L18.1248 31.8901L18.6419 32.0876L18.7558 32.1715L19.288 32.1335L19.3339 31.9736L20.1624 31.9432L20.596 31.8292L20.6415 31.7683L22.3293 31.7912L22.2379 31.7228L21.9796 31.6088L22.2684 31.525H23.0894L23.5001 31.4719L24.0322 31.5554L24.7547 31.7228C24.7547 31.7228 25.2184 31.601 25.2793 31.601C25.3323 31.601 26.0243 31.6698 26.0243 31.6698L26.526 31.2591L26.8299 31.0308L27.3928 30.7191L27.4839 30.5521L28.0845 30.8563L28.13 31.2211L28.6926 31.7762L29.2326 31.7988L29.4301 31.9052L29.7039 31.9432L29.7189 32.0346L29.4681 32.141L28.2593 32.5667L28.2669 32.6122L27.4609 32.886L27.3395 32.9924L27.0581 33.1824L26.9897 33.1598L26.8987 33.2128L26.9517 33.2737L26.7919 33.2967L26.6399 33.3271L26.8908 33.4257L27.4079 33.2888L27.7956 33.2128H28.2518L28.3353 32.8631L28.8904 32.7187L29.2172 32.7796H29.7189L29.8483 32.7491L30.1371 32.7187L30.5782 32.7645L30.8216 32.7491L31.1634 32.848L31.0495 33.0838L30.6693 33.2433L30.5403 33.3347L30.5324 33.3956L30.4109 33.4182L30.2969 33.3726L30.221 33.4561L29.9242 33.4031L29.5444 33.5246H29.2627L29.0502 33.4336L28.9209 33.4866H28.6396L28.4797 33.5321L28.8069 33.6464L29.0653 33.54L29.4985 33.6081L29.8483 33.5855L30.0307 33.5095H30.2665L30.1755 33.593L29.9776 33.6919L29.5365 34.0037L29.6659 34.0188L30.0687 33.7833L30.1525 33.669L30.3199 33.654L30.6392 33.707L31.0115 33.5475L31.3233 33.4941L31.0649 33.3193L31.2168 33.2583H31.3842L31.7339 33L32.2052 32.9774L33.8625 33.1523L33.9614 33.2282H34.2503L35.1551 33.3956L35.406 33.4411L35.9077 33.6081L35.7253 33.707L35.6568 33.7679L35.9231 33.8288L35.8926 33.9123L35.7783 33.9808L35.7253 34.1252L35.8543 34.0947L35.9686 33.9808L36.0825 33.8439L36.2879 33.7908L36.5692 33.8668L36.9265 33.8593L37.0784 33.7984H37.5271L38.2721 33.9578L38.4469 34.0342L38.6293 33.9732L38.8956 33.9958H39.2679L39.5267 34.0492L39.6331 34.0037L40.3856 33.9958L40.4315 33.9657H40.8493L42.2788 34.2166L42.5752 34.3155L42.7275 34.3685L42.9629 34.399L43.0772 34.4825L43.8143 34.7412L44.2024 34.7867L44.4074 34.9007L44.4379 34.9465H44.5518L44.6507 34.8777L44.8181 34.8931L45.1374 34.9845L46.1031 35.053L46.5514 35.0605L46.8861 35.2655L46.8632 35.5317L47.1596 35.6306V36.5276L46.9926 36.7179L46.6808 36.9228L45.9659 37.1891L45.6165 37.4554L44.6282 37.6757L44.4304 37.7822L44.339 37.8811L44.096 38.033L43.8982 38.1853L43.7538 38.2993L43.2521 38.5422L43.1073 38.611L42.9403 38.5881L42.9249 38.4437L42.583 38.4512L42.4003 38.5422L42.659 38.5806L42.6361 38.6641L42.4386 38.7096L42.3698 38.778L42.2333 38.816V38.8694L42.3014 38.8845L42.2788 38.9834L42.2634 39.0518L42.3318 39.1733L42.3698 39.7893L41.5643 40.983L41.3055 41.1349L41.298 41.2793L41.4424 41.3858L41.412 41.5381L40.8268 41.8115L40.6899 42.1157L39.975 42.344L39.7546 42.6174L39.8685 42.7618L38.7053 43.0432L38.6068 43.203H37.4661L37.4891 43.0661L37.3217 43.0736L37.2612 43.2714L36.2574 43.2639L36.0141 43.2105L35.7023 43.241L35.5654 43.3094L35.4973 43.4004L35.2082 43.4234L34.9043 43.4993L34.5696 43.6362L34.4631 43.6136L34.3796 43.5527L33.946 43.5832L32.3041 44.0089L31.7185 44.2139L31.6046 44.2598L31.559 44.3508L31.4068 44.3891L31.2018 44.2977L30.9889 44.3433L30.9585 44.4422L31.0724 44.5561L30.7151 44.64L30.7531 44.8754L30.9201 45.7269L29.8483 46.016L28.5636 46.822L27.9021 47.0954L27.7806 47.2097L26.9592 47.3462L26.5869 47.734L26.1458 47.9243L25.6821 48.0457L25.2793 48.1902L24.8837 48.0457L25.2868 47.7644L24.9446 47.567L23.9562 47.2018L23.4925 47.1259L23.1199 47.0194L22.8765 46.913L22.3748 46.9739L22.1545 47.0119L22.0326 46.9435L22.0785 46.7761L21.8352 46.6926L21.584 46.7381L21.3181 46.5557L21.0823 46.5482L20.8314 46.6772L20.4286 46.7077L20.2082 46.6242L22.139 45.8182L24.7622 45.1492L24.6783 44.7769L24.7547 44.5335L23.8423 44.4346L24.0777 43.9935L23.8803 43.6136L23.0894 43.7731L22.5268 43.4538L22.4282 43.0586L21.7287 42.8837L21.0977 42.9597L19.6757 42.8912L19.7367 42.7923L19.942 42.7009L19.8126 42.4655L19.5922 42.0168L19.8356 41.9333L19.5618 41.781L20.0714 41.4238L19.9345 41.3098L20.1169 40.983L19.9266 40.8841L19.9495 40.7167L19.6532 40.6332L19.235 40.4813L19.288 40.2684L19.3185 40.1616L18.9916 40.1921L17.0605 40.1846L16.9315 39.9946L16.6957 39.6754L16.8172 39.4242L16.5817 38.9758L15.1297 38.8845L13.5329 38.5197L13.1985 38.5347L12.8867 38.4283L12.5141 38.4817L11.5332 38.2459L10.9101 37.5923L11.1305 37.2271L11.0011 37.1511L10.1572 37.1891L9.8988 37.2045L9.50354 37.3109L9.34371 37.4174L9.2982 37.5084L8.49979 37.5464L8.24894 37.6603L7.92965 37.7062L7.72432 37.6302L7.22262 37.8431L6.73598 37.8506L6.47008 37.7062L6.044 37.7288L5.42835 37.7668L5.4133 37.8506L5.18503 37.8277L4.6604 37.6224L4.98758 37.0372L4.85069 37.0067L4.35652 37.25L4.06769 37.2575L4.03723 37.3565L2.89659 37.2805L2.7597 36.9838L2.23507 37.0372L2.18204 36.9838L2.13653 36.8394L2.07561 36.7938L1.61943 36.6874L1.17077 36.4896L0.995892 36.3986L1.0113 36.2997L0.76798 36.2008L0.75293 36.0639L1.06434 35.965L1.14819 35.8664L1.23169 35.8206L1.30766 35.7446V35.7446Z" fill="#FFCC2B"/>
<path fill-rule="evenodd" clip-rule="evenodd" d="M19.706 13.4536L19.6985 14.1452C20.1776 14.2746 20.6259 14.2591 21.12 14.229C21.2723 14.2212 21.4243 14.2136 21.5838 14.2061C21.7131 14.2061 21.835 14.2061 21.9564 14.2136C21.8045 14.1757 21.6526 14.1452 21.4777 14.1147C21.1505 14.0542 20.8237 13.9933 20.5044 13.8793C20.208 13.7729 19.9418 13.6281 19.6985 13.4457L19.706 13.4536V13.4536ZM16.2697 7.41677H16.1558L16.0644 7.48521C15.996 7.2573 15.9884 7.08995 16.011 6.99857L16.0494 6.93012L16.1253 6.99857C16.1859 7.08242 16.2393 7.21931 16.2697 7.42429V7.41677V7.41677ZM23.8801 8.88422C23.6292 8.95266 23.3705 9.03616 23.1196 9.15012C22.8462 9.27196 22.5724 9.41637 22.2987 9.59125L23.0892 10.9673C23.1956 11.1193 23.2261 11.3171 23.1956 11.5224C23.1652 12.2445 23.234 12.982 23.325 13.7195C23.7357 13.5675 24.2904 13.5521 24.739 13.6281C24.7161 12.868 24.6631 12.0925 24.6935 11.4085C24.7466 10.9369 24.6401 10.5645 24.4348 10.2374C24.1689 9.78906 23.9181 9.34793 23.8801 8.87669V8.88422V8.88422ZM22.0783 9.30242L22.1009 9.29489C22.3897 9.08955 22.6864 8.92973 22.9828 8.80072C23.2641 8.67136 23.5529 8.57998 23.8421 8.49648V8.50401C23.9485 8.59539 23.9256 8.67136 23.8801 8.74733C23.6063 8.8233 23.3325 8.91468 23.0587 9.02863C22.7699 9.158 22.4811 9.30994 22.1998 9.49987L22.0933 9.43142L22.0704 9.30242H22.0783ZM16.9692 1.95046C17.0373 1.90495 17.1212 1.85155 17.1972 1.81357C17.334 1.7376 17.486 1.67668 17.6533 1.62364C18.4138 1.36491 19.3641 1.30435 19.9038 1.4717C19.8658 1.2359 19.744 0.992582 19.6454 0.749261C19.5236 0.0192971 19.0065 -0.0566741 18.3299 0.0271803C17.4175 0.148662 16.9768 0.779721 16.9692 1.95046V1.95046ZM17.3416 3.9196C17.3645 3.74473 17.357 3.58526 17.3265 3.4025C16.9388 3.25809 16.7944 3.02229 16.779 2.74134C16.7639 2.46756 16.8019 2.27763 16.9083 2.15579L16.9159 2.14827C17.0148 2.06441 17.1287 1.98844 17.2581 1.92C17.3871 1.85155 17.5319 1.79099 17.6913 1.7376C18.4668 1.4717 19.4476 1.4183 19.9418 1.61611L19.9798 1.71466V1.76053C20.0177 1.85944 20.0407 1.95798 20.0332 2.01138L19.9647 2.03431C19.615 1.94293 19.2727 1.87449 18.9305 1.88201C18.5886 1.88954 18.2389 1.98092 17.8813 2.21671C17.5089 2.46004 17.357 2.41417 17.2807 2.30021C17.2427 2.23929 17.2201 2.16332 17.1972 2.09487L17.1896 2.0723L17.1061 2.02643L17.0603 2.11028L17.0678 2.13286C17.0907 2.20883 17.1212 2.30021 17.1667 2.36866C17.2807 2.54353 17.4785 2.6195 17.9501 2.32314C18.2919 2.1024 18.6112 2.0189 18.9305 2.01138C19.2577 2.00385 19.5845 2.0723 19.9264 2.15579C20.0027 2.17084 20.0557 2.17084 20.0937 2.14039L20.1016 2.22424C20.1851 2.68795 20.1926 3.06063 19.9952 3.19752C19.9343 3.41003 19.8809 3.59279 19.8124 3.77519C19.7744 3.87409 19.6375 4.13999 19.6985 4.20091C19.744 4.25395 19.7898 4.30734 19.7974 4.4213C19.8124 4.53525 19.8049 4.66462 19.7364 4.78646L19.6909 4.86995L19.6529 4.91547C19.4322 5.18172 19.0445 5.3032 18.6417 5.31073C18.231 5.31861 17.8132 5.20466 17.5394 5.01437L17.4709 4.96134C17.2961 4.81692 17.1821 4.64957 17.1441 4.49727C17.1287 4.43671 17.1212 4.36826 17.1287 4.31487L17.1896 4.17045L17.3111 4.07943L17.357 3.90455H17.3491L17.3416 3.9196V3.9196ZM13.9964 8.76274L14.0573 8.73192C14.2626 8.6409 14.5819 8.60291 14.9162 8.56493C15.3344 8.51942 15.7756 8.46602 16.0494 8.3062C16.0339 8.18471 16.011 8.05535 16.0035 7.93387C16.0035 7.87295 15.996 7.78945 15.996 7.7056C15.8666 7.34832 15.844 7.09747 15.8745 6.96058C15.8971 6.85415 15.958 6.79359 16.0264 6.78571C16.0949 6.77818 16.1633 6.81617 16.2239 6.90755C16.3002 7.01398 16.3762 7.21931 16.4066 7.50815L16.4597 7.55366C16.4521 7.27988 16.3991 7.08242 16.3382 6.95306L16.2927 6.87709L16.2543 6.83158L16.2393 6.7402L16.3307 6.73267L16.3991 6.80112L16.4521 6.90002C16.5281 7.05949 16.589 7.31786 16.589 7.6755L16.7944 7.8579C16.7564 7.72853 16.7485 7.58412 16.7868 7.42429L16.9083 6.87709L17.0452 7.42429C17.0757 7.53861 17.1137 7.63751 17.1667 7.72853C17.1896 7.61458 17.2351 7.50815 17.3036 7.40924L17.6154 6.93801L17.5469 7.49274C17.6078 7.40924 17.6763 7.33327 17.7748 7.27235L18.2389 6.95306L18.0565 7.28776L18.2919 7.04444L18.117 7.57659C18.0715 7.7056 18.0565 7.82744 18.0565 7.94892C18.14 7.85037 18.2464 7.77404 18.3758 7.71348L18.885 7.47769L18.5352 7.91846L18.5123 7.94892C18.6266 7.89588 18.7481 7.86542 18.885 7.8579L19.4476 7.82744L18.961 8.10122C18.8015 8.19224 18.6797 8.29115 18.5886 8.43556L18.7101 8.50401C19.0065 8.25316 19.3107 8.00984 19.6074 7.75899L19.615 7.75147L19.63 7.74394C19.6909 7.71348 19.7594 7.7056 19.8203 7.73606C19.9343 7.78945 19.9572 7.92634 19.9572 8.0403C19.9572 8.17719 19.9343 8.32913 19.9113 8.46602C19.8429 8.88422 19.7289 9.30994 19.615 9.72814C19.7669 10.6785 19.7898 11.6288 19.7139 12.5867V12.9289C19.9798 13.1723 20.2761 13.3622 20.6183 13.4916C20.9226 13.6055 21.2344 13.6661 21.5536 13.727C21.6981 13.7575 21.85 13.7804 21.9944 13.8184C22.0783 13.8413 22.1618 13.8564 22.2377 13.8793C22.2152 13.8184 22.2152 13.7499 22.2682 13.651C22.3212 13.4991 22.3291 13.3471 22.1768 13.1798C22.0478 12.9895 22.0783 12.8526 22.1922 12.7387C22.2987 12.6627 22.3212 12.5412 22.2607 12.3739C22.2227 12.214 22.1847 12.0546 22.1542 11.9026C22.1087 11.5754 22.0629 11.2486 22.0174 10.9293C21.9944 10.5871 22.0023 10.2678 22.0324 9.97146C21.6371 8.10874 21.6827 6.86204 22.3822 6.84663C21.9109 7.06701 21.85 7.92634 22.0704 9.158C22.3596 8.96019 22.6484 8.80072 22.9448 8.67136C23.2411 8.54199 23.5378 8.44309 23.8421 8.35207C23.8116 8.26821 23.7507 8.20765 23.6747 8.14673C23.6823 7.95644 23.6597 7.76652 23.5909 7.57659C23.1956 6.322 22.6029 5.1208 20.1622 4.36074L20.2002 4.51268C20.2306 4.69508 20.2002 4.90042 20.0937 5.09823L20.0482 5.1742L19.9572 5.29568C19.668 5.63038 19.1892 5.78232 18.7026 5.78985C18.216 5.79737 17.7143 5.66836 17.3645 5.43257L17.2126 5.31861C16.9918 5.1208 16.8399 4.89289 16.7868 4.67967C16.7564 4.5736 16.7485 4.46717 16.7639 4.36826L16.7714 4.34533C16.0795 4.6037 15.0456 4.82444 14.8478 5.13621C14.7414 5.37165 14.483 5.54653 14.369 5.75186C14.2551 5.9572 14.2397 6.17006 14.0802 6.36787C13.9358 6.75561 14.0573 7.08995 13.9813 7.48521C13.9204 7.84249 14.0877 8.24563 14.0268 8.74733L13.9964 8.76274V8.76274ZM14.0573 9.18058C13.9813 9.14259 13.9508 9.08167 13.9508 8.99065C13.9738 8.93725 14.0268 8.89174 14.1103 8.85376C14.3006 8.77026 14.6045 8.73192 14.9317 8.70182C15.3344 8.65595 15.7756 8.60291 16.0644 8.45097C16.0795 8.5574 16.1024 8.65595 16.1174 8.76274C15.8515 8.85376 15.4943 8.87669 15.152 8.89927C14.8023 8.9222 14.4601 8.94514 14.2551 9.03616C14.1712 9.07415 14.1028 9.12754 14.0573 9.18846V9.18058V9.18058ZM15.175 11.9936L15.1141 11.8722C14.9467 11.4995 14.6045 11.4386 14.5514 10.7924C14.498 10.2449 14.3156 9.75107 14.2017 9.22645L14.3081 9.15012C14.498 9.06662 14.8177 9.04369 15.1596 9.02111C15.5018 8.99817 15.8666 8.97524 16.1404 8.88422C16.1633 8.98312 16.1784 9.07415 16.2013 9.16553L16.2393 9.35545C16.011 9.59877 15.806 9.86503 15.6616 10.1005C15.2509 10.5036 15.3574 10.9218 15.6996 11.3246L15.7376 11.4464L15.6691 11.5149L15.5932 11.5909C15.5093 11.6668 15.4333 11.7503 15.3499 11.8263C15.2889 11.8797 15.228 11.9406 15.1675 11.9936H15.175V11.9936ZM15.3574 7.7056L15.4029 7.73606L15.4183 7.75899L15.3878 7.8579C15.1976 7.96433 14.9087 7.96433 14.6579 7.96433C14.4679 7.96433 14.2931 7.96433 14.2322 8.00984C14.2017 8.03277 14.2167 8.09369 14.3235 8.23023L14.3081 8.33701L14.2017 8.32161C14.0343 8.10122 14.0422 7.97185 14.1487 7.89588C14.2476 7.81991 14.445 7.81991 14.6579 7.81991C14.8098 7.81991 14.9696 7.81991 15.1141 7.79698L15.0761 7.78193C14.9922 7.75147 14.9241 7.71348 14.8478 7.6755C14.4755 7.47016 14.1788 7.15087 14.0877 6.90002L14.1332 6.80112L14.2322 6.84663C14.3156 7.06701 14.5819 7.3562 14.9241 7.53861C14.9922 7.57659 15.061 7.60705 15.137 7.63751C15.2054 7.66761 15.2814 7.69055 15.3574 7.7056V7.7056ZM17.0678 4.12494L16.9692 4.20844C16.9159 4.26183 16.8854 4.33028 16.8779 4.40625C16.8628 4.48222 16.8703 4.5736 16.9008 4.66462C16.9538 4.8549 17.0832 5.05988 17.2885 5.23476L17.4254 5.34119C17.7522 5.56193 18.2235 5.68341 18.6872 5.67589C19.1434 5.66836 19.5845 5.52395 19.8429 5.22723L19.9264 5.1208L19.9647 5.05236C20.0557 4.88501 20.0862 4.7026 20.0557 4.55066C20.0332 4.40625 19.9572 4.28441 19.8658 4.21596L19.8429 4.20844C19.8809 4.26936 19.9113 4.3378 19.9264 4.4213C19.9493 4.55819 19.9264 4.71801 19.8504 4.86995L19.7898 4.96886L19.744 5.02942C19.4931 5.32614 19.0674 5.46303 18.6266 5.47055C18.193 5.47808 17.7447 5.3566 17.448 5.15126L17.372 5.09823C17.1746 4.93088 17.0452 4.74059 16.9993 4.55819C16.9768 4.47469 16.9692 4.39872 16.9843 4.32275C16.9918 4.25395 17.0223 4.19339 17.0603 4.13999L17.0678 4.12494V4.12494ZM15.5778 12.7921C15.5323 12.6322 15.4563 12.4878 15.38 12.3509C15.4713 12.2749 15.5552 12.199 15.6387 12.123L15.6996 12.0621C15.6616 12.3129 15.6312 12.5487 15.6312 12.7921L15.5778 12.7996V12.7921V12.7921ZM22.7774 14.8372C22.2377 14.4645 20.9986 14.7687 19.668 14.5634C19.706 16.0839 19.3032 18.1595 19.7974 18.9045C20.0711 18.798 20.3295 18.745 20.5804 18.7676C20.8466 18.7755 21.1125 18.8665 21.3863 19.0872C21.7056 19.3986 22.0098 19.7255 22.4811 19.8018C22.7319 19.3986 22.8613 18.836 22.9372 18.3723C22.4965 17.9695 22.0858 17.5438 22.0023 16.9428C21.9944 16.8898 21.9794 16.8289 21.9794 16.7683L21.9869 16.7759C21.9869 16.616 22.0249 16.5171 22.1847 16.6924C22.4201 16.9428 22.671 17.1711 23.0512 17.2776C22.9677 17.0342 22.8763 16.7909 22.7853 16.5476C22.8154 16.2817 22.8383 16.0154 22.7473 15.742L22.7548 15.7266L22.7473 15.6961C22.8308 15.4528 22.8538 15.2174 22.8154 14.9665L22.7774 14.8142V14.8372V14.8372ZM20.4815 20.2655C20.5349 20.3644 20.6108 20.4784 20.6639 20.5848C20.8541 20.5239 21.029 20.7747 20.8541 20.98C21.029 22.5084 21.2949 23.8995 21.7665 25.0172V24.9868C21.736 23.5573 21.7891 22.1357 21.9715 20.7141C21.7361 20.5848 21.1355 20.7521 20.4893 20.2655H20.4815V20.2655ZM13.9738 19.0872C14.8252 19.7939 15.7906 20.1591 16.8094 20.273C17.8207 20.387 18.8925 20.2655 19.9647 19.9992L20.0177 19.9082L19.9264 19.8548C18.8699 20.1135 17.8207 20.2426 16.8248 20.1211C15.8286 20.0071 14.8937 19.6574 14.0648 18.9729L13.9584 18.9808L13.9659 19.0872H13.9738V19.0872ZM13.3123 20.0677C13.5481 20.2805 13.814 20.4629 14.1028 20.6228C14.392 20.7826 14.7034 20.9191 15.0306 21.0334C16.7184 21.6036 18.9 21.5351 20.7477 20.8432L20.7932 20.7446L20.6943 20.6987C18.8775 21.3832 16.7334 21.4516 15.0761 20.889C14.7568 20.7826 14.4525 20.6457 14.1712 20.4934C13.8899 20.3415 13.6391 20.1591 13.4112 19.9613L13.3047 19.9688L13.3123 20.0752V20.0677V20.0677ZM14.0422 19.2772C13.8064 19.4366 13.6391 19.6649 13.5101 19.9387C15.152 21.2309 17.7902 21.5656 20.6033 20.6382C20.4514 20.425 20.2991 20.2121 20.1471 19.9992C18.5352 20.5694 15.6917 20.6608 14.0422 19.2772ZM14.1257 12.83L14.0268 12.8071L14.0422 12.7921C14.0802 12.7691 14.1487 12.7541 14.2701 12.7921L14.1257 12.8225V12.83ZM15.7756 11.7962C15.6996 11.8643 15.6233 11.9406 15.5398 12.0166C15.2434 12.2979 14.8861 12.5942 14.5819 12.7845C14.7948 12.8831 15.0531 12.9895 15.6842 12.9135L15.6996 13.0429C15.0076 13.1189 14.7338 12.9974 14.5059 12.891L14.445 12.8605C14.3311 12.9214 14.2246 12.9594 14.1408 12.9594C14.0343 12.9669 13.9659 12.9365 13.9279 12.891L13.8978 12.7766L13.9659 12.6856C14.0268 12.6398 14.1487 12.6172 14.3081 12.6627L14.4375 12.7082C14.7414 12.5412 15.1295 12.214 15.4484 11.9101C15.5398 11.8263 15.6233 11.7503 15.6996 11.6744L15.7756 11.5984V11.7883V11.7962V11.7962ZM15.7222 13.9932C15.6082 13.5066 15.9275 13.4611 16.0949 13.4306C15.7451 13.3317 15.3878 13.5446 15.7222 13.9932ZM17.2581 14.3276C17.7902 14.5025 17.8967 13.7119 17.4555 13.613C17.1821 13.5066 16.7714 13.8033 16.9843 14.1606C16.9614 13.8108 17.319 13.651 17.5394 13.7729C17.6609 14.0008 17.5243 14.3276 17.2581 14.3201V14.3276V14.3276ZM17.7218 15.3084C17.6154 15.6582 16.9463 16.2437 16.0949 16.0079C16.6725 16.487 17.7902 16.1219 17.7218 15.3084V15.3084ZM17.8512 14.2136H17.8587C18.178 14.1986 18.6187 13.765 18.6567 13.3013C19.0369 13.0809 19.2577 12.5412 19.1208 12.0166C19.0294 12.6018 19.0979 12.8985 18.5808 13.1798C18.5123 13.4536 18.3833 13.8259 17.9651 14.1377C18.2539 13.8413 18.0031 13.3772 17.6989 13.2862C17.4254 13.2024 17.1137 13.2404 16.8854 13.1339C16.9463 13.3772 18.1475 13.3013 17.8662 14.2061L17.8433 14.2212H17.8587L17.8512 14.2136V14.2136ZM15.4867 13.9094C15.4183 12.9365 16.5435 13.2178 16.6041 12.9745C16.3762 13.0884 16.0035 12.982 15.7451 13.0884C15.5398 13.1723 15.3119 13.4156 15.4867 13.9094V13.9094ZM19.1968 10.8684C19.0979 11.3246 18.9764 11.6439 18.7481 11.5375C18.7406 11.4615 18.7406 11.393 18.7481 11.3321L18.847 11.3475C18.9534 11.3095 19.0828 11.1347 19.1283 10.9673L19.1434 10.838L19.2878 10.7545L19.1968 10.8609V10.8684ZM18.6797 11.4919C18.4897 10.6251 19.1434 10.61 19.4551 10.3287L19.4096 10.4807C19.0979 10.7011 18.5886 10.7774 18.7101 11.4919H18.6797V11.4919ZM15.6157 10.671C16.0569 10.633 16.1938 11.2257 16.0873 11.9252C16.0339 12.2674 16.0264 12.6322 16.1328 13.058H15.996C15.935 12.7082 15.935 12.3663 15.9884 12.0166C16.0873 11.378 15.9655 10.7545 15.6233 10.6631L15.6157 10.671V10.671ZM14.2322 18.9045C15.6767 20.2196 17.6458 20.2275 19.744 19.8168C19.4931 19.6799 19.2347 19.3911 19.4551 19.1478L19.4627 19.1327C19.5161 19.0414 19.577 18.9958 19.6454 18.9579C19.1817 18.0226 19.5311 16.3121 19.5616 15.2629L19.5695 14.381C20.1396 14.5483 20.6488 14.5254 21.1355 14.4949C21.6827 14.4645 22.2073 14.434 22.7853 14.6928L22.7774 14.5408C22.1998 14.305 21.6751 14.3355 21.1279 14.3656C20.6413 14.396 20.1317 14.419 19.5695 14.2441L19.577 13.1723C20.246 13.765 20.8846 13.8793 21.5078 13.9932C21.9414 14.0692 22.3671 14.1531 22.7774 14.396C22.7774 14.3355 22.7774 14.2821 22.7774 14.2441C22.3746 14.0237 21.964 13.9477 21.5382 13.8714C20.9072 13.7575 20.2611 13.636 19.5845 13.0049V12.5942C19.6605 11.6819 19.6529 10.7391 19.4856 9.73566C19.782 8.61796 19.9722 7.73606 19.6909 7.88047C19.3641 8.14673 19.0445 8.41299 18.7176 8.67888C18.6187 8.61796 18.5123 8.5574 18.4059 8.50401C18.5202 8.2761 18.6797 8.1238 18.9 8.00231C18.6341 8.01736 18.3984 8.13168 18.2389 8.42804L18.1855 8.4051C18.2235 8.19977 18.307 8.02525 18.4442 7.85037C18.2389 7.94139 18.0866 8.10122 18.0181 8.34418C17.9121 8.06323 17.9192 7.81991 18.0106 7.54613C17.8282 7.72853 17.7368 7.96433 17.8053 8.27609L17.7748 8.26821C17.6763 7.91846 17.7218 7.66009 17.8737 7.38631C17.6383 7.54613 17.5014 7.79698 17.5774 8.19224C17.4405 7.96433 17.4025 7.74394 17.433 7.48521C17.319 7.66009 17.2731 7.8579 17.3416 8.08581C17.1212 7.91846 17.0072 7.72101 16.9388 7.46228C16.8779 7.73606 16.9463 7.99479 17.2427 8.23023C17.1821 8.23811 17.1287 8.24564 17.0678 8.26069C16.8169 8.0403 16.5736 7.81991 16.3228 7.59953C16.1099 7.40171 16.0644 7.71348 16.3608 9.15012C16.627 8.9222 16.9388 8.76274 17.3265 8.70182C16.7868 8.96772 16.1174 9.63676 15.7981 10.1918C15.4104 10.5567 15.5473 10.9143 15.8361 11.264C16.0795 11.6518 15.6462 12.3205 15.8286 13.2178C15.3269 13.6435 15.4713 14.0083 15.7981 14.3581C15.9275 14.8676 15.342 15.2249 15.844 15.909C15.7756 16.1448 15.7071 16.3806 15.6312 16.616C15.4867 17.0496 15.342 17.4829 15.1976 17.9086C14.7034 17.8781 14.3615 18.3573 14.2476 18.912L14.2322 18.9045V18.9045ZM10.4841 27.0849L10.4763 27.0774L10.4687 27.0928L10.4841 27.0849ZM8.91778 25.5494C9.04715 25.0398 9.35891 24.7284 9.68573 24.6295C9.83015 24.5915 9.97456 24.5915 10.1039 24.637C10.2333 24.6825 10.3473 24.7739 10.4383 24.9108C10.659 25.2681 10.6891 25.9447 10.2863 26.9864L10.3243 27.0699L10.4078 27.0319C10.826 25.9522 10.788 25.2376 10.5447 24.8424C10.4458 24.675 10.3014 24.5686 10.1419 24.5077C9.98997 24.4546 9.8151 24.4546 9.64775 24.5001C9.28259 24.6066 8.93319 24.9563 8.78842 25.5189L8.83429 25.5949L8.91026 25.5494H8.91778V25.5494ZM10.3014 24.4772C10.4307 24.5535 10.5447 24.6596 10.621 24.789L10.7121 24.9108C10.9324 25.2681 10.9629 25.9447 10.5601 26.9864L10.5981 27.0699L10.6816 27.0319C11.1073 25.9522 11.0618 25.2376 10.826 24.8424C10.7196 24.675 10.583 24.5686 10.4232 24.5077L10.3014 24.4772V24.4772ZM9.12312 25.3516C9.00164 25.3745 8.94072 25.4734 8.90273 25.6103L8.89485 25.6178L8.88732 25.6254L8.83429 25.6634L8.81888 25.6709C8.54546 25.8307 8.25627 25.9676 7.99789 26.15C7.46574 26.5223 7.46574 26.842 8.15772 26.9484C9.10018 27.1003 9.76923 26.7581 10.0885 26.9025L10.2028 27.0165L10.2104 26.9405C10.3623 26.5453 10.4992 26.1045 10.5142 25.6788C10.5221 25.4354 10.4992 25.1617 10.3698 24.9488C10.3014 24.8424 10.2104 24.751 10.0885 24.713L10.0505 24.698L10.0126 24.7055C9.90612 24.7359 9.8151 24.789 9.73124 24.8574C9.72372 25.0398 9.60976 25.1692 9.41948 25.2681H9.41195H9.40443H9.3969H9.38938H9.38149H9.37397H9.36644L9.35891 25.2756H9.35139H9.34351H9.33598C9.45782 24.9714 9.64775 24.7585 9.86061 24.6446L9.76923 24.6675C9.60224 24.7205 9.46534 24.8194 9.35891 24.9488C9.29047 25.0552 9.22955 25.1692 9.18404 25.3061L9.12312 25.3516V25.3516ZM15.6233 16.0688C14.4375 17.0418 13.1223 18.129 11.9971 19.2012C10.8719 20.273 9.93658 21.3298 9.50333 22.2346C9.41948 22.44 9.298 22.645 9.2446 22.8657C9.12312 23.3369 8.83429 24.0364 8.98623 24.1733C9.15358 24.2948 9.28259 24.3862 9.42736 24.4851C9.48792 24.4546 9.55637 24.4317 9.61729 24.4091C9.75418 24.3708 9.89859 24.3557 10.028 24.3787C10.1724 24.3557 10.3168 24.3633 10.4537 24.4166C10.6436 24.4851 10.7956 24.6141 10.902 24.789C11.0618 25.0477 11.1073 25.3745 11.0923 25.6788C11.0847 25.8762 11.0543 26.0816 11.0088 26.279C11.1607 25.9522 11.1912 25.5799 11.0923 25.1466C11.1912 25.1387 11.2897 25.1237 11.3886 25.1158C11.8527 24.3253 11.8828 23.0631 12.1261 22.0368C12.1415 21.2004 12.5898 20.6608 13.1904 20.2426C13.0005 19.9233 13.2513 19.7104 13.4416 19.7255C13.5782 19.5509 13.6771 19.3607 13.814 19.1933C13.738 18.95 13.9204 18.7676 14.0802 18.745C14.3235 17.8781 14.7034 17.7642 15.1295 17.7033C15.2585 17.2625 15.3878 16.8594 15.5093 16.4336C15.2434 16.654 14.9772 16.8823 14.7113 17.1181C14.3536 17.4295 13.9888 17.7567 13.6316 18.091C11.7842 19.8093 10.0201 21.7405 9.41948 23.0707L9.32845 23.1011L9.29047 23.0101C9.89859 21.6645 11.6775 19.7104 13.5326 17.9846C13.8899 17.6502 14.2551 17.3231 14.6124 17.0117C14.9392 16.7225 15.2585 16.4566 15.5702 16.1982L15.6082 16.0764L15.6233 16.0688V16.0688ZM14.0343 14.2212C14.0648 14.0997 14.1332 13.9703 14.2701 13.8259L14.2322 13.8184C14.0573 13.9477 14.0268 14.0767 14.0422 14.2212H14.0343ZM15.4943 14.7383C15.1825 14.305 14.8327 14.0008 14.43 13.8714C13.7 14.6623 14.9467 14.7383 14.483 16.4336C14.6199 15.5747 14.2626 15.1185 14.1028 14.7153C14.1103 14.9587 14.0573 15.2554 13.8064 15.6582C14.2551 14.7232 13.6161 14.2212 14.0723 13.8108C13.9888 13.8033 13.8978 13.8108 13.8064 13.8184L11.2517 16.1677C11.1532 16.3043 11.0769 16.4261 11.0238 16.5325C11.9666 16.5021 12.4683 16.3652 12.6128 15.1489C12.8256 16.4412 11.8677 16.9357 10.9554 16.7303C10.8565 17.0801 10.9324 17.346 10.8414 17.6957C10.4537 19.0489 9.92905 20.2884 9.65527 21.7405C10.1494 20.927 10.9708 20.0222 11.9287 19.1173C13.0765 18.0226 14.4221 16.9049 15.6312 15.9165C15.4029 15.5213 15.38 15.1411 15.5172 14.7458L15.4943 14.7383V14.7383ZM14.6124 13.0658L14.0042 13.6206C14.6353 13.56 15.137 13.9173 15.5853 14.5179L15.6007 14.4949C15.2814 14.0463 15.2205 13.613 15.304 13.2102C15.0761 13.1644 14.8403 13.1113 14.6124 13.0658ZM25.0053 31.6697C25.4235 30.5746 26.5183 30.9168 26.2674 28.4004C24.6935 28.3091 24.2983 29.6547 23.1501 27.5107C23.3784 28.2861 23.8496 28.6818 24.4047 28.8792C24.4957 29.3888 24.5187 29.9209 24.6251 30.4226C24.7161 30.8484 24.9978 30.9623 25.0128 31.6772L25.0053 31.6697V31.6697ZM23.3859 17.5589C23.3859 17.5589 23.7052 17.4904 23.8725 17.6123C24.0395 17.7337 24.1234 17.6653 24.2449 17.6198C24.3664 17.5739 24.5717 17.6348 24.8379 17.7033C25.0963 17.7717 25.3321 17.8251 25.7654 17.7488C26.1911 17.6728 26.4573 17.7337 26.7842 17.6578C27.111 17.5818 27.3848 17.6348 27.7116 17.4449C28.0463 17.2625 28.3426 17.0342 28.4036 17.0722C28.4645 17.1181 28.2971 17.4449 28.1527 17.5589C28.0083 17.6803 27.8409 17.8936 27.6585 18C27.4761 18.0985 27.6051 18.1824 27.8334 18C28.0613 17.8176 28.4111 17.6273 28.548 17.4144C28.6849 17.1941 28.7913 16.654 28.3047 16.8973C27.8184 17.1407 26.906 17.5438 26.5788 17.5209C26.252 17.4979 26.161 17.3385 25.8413 17.384C25.522 17.4374 25.3855 17.5359 25.0963 17.4374C24.8 17.3385 24.6706 17.3689 24.4273 17.384C24.184 17.3994 23.7357 17.1786 23.5074 17.2851C23.2795 17.384 23.1881 17.5209 23.287 17.5359C23.3934 17.5513 23.4085 17.5589 23.4085 17.5589H23.3859V17.5589ZM22.8079 17.5893C22.557 17.4904 22.5646 17.3385 22.3976 17.2546C22.2757 17.1941 22.4811 17.4904 22.6409 17.7187C22.7928 17.9541 23.0207 18.015 23.1196 17.9161C23.2186 17.8176 23.0892 17.6957 22.8079 17.5893ZM29.4224 21.2918C29.6427 21.2463 29.8635 21.1624 30.0914 21.0259C30.3878 20.8507 30.7149 20.7217 31.0873 20.5923C31.2241 20.5393 31.3231 20.4859 31.384 20.4174C31.399 20.5848 31.422 20.7521 31.437 20.9191L31.4829 21.5351L31.5055 21.4742C31.4524 21.9759 31.4524 22.4855 31.5055 23.0022C31.5664 23.6562 31.7337 24.2568 31.9996 24.8574C32.2429 25.5645 32.4863 26.2184 32.8969 26.8495L32.912 26.8875C32.6991 26.9405 32.4863 26.9559 32.2734 26.9405C32.1136 27.0774 31.9466 27.1609 31.7638 27.2297C31.5968 27.8758 31.4295 28.5144 31.2621 29.1605C31.1557 30.5746 31.361 31.6163 31.8247 32.3613C31.8857 32.4602 31.9312 32.5516 31.8552 32.6351C31.7792 32.81 31.7868 33.0228 31.9312 33.2887C32.1136 33.6464 32.0835 33.9732 31.8477 34.2774C31.399 34.6802 30.8138 34.7333 30.5401 34.1936C30.4107 33.9352 30.2054 33.7528 30.4032 33.4256C30.5246 33.1748 30.4411 32.7415 30.4791 32.4222C30.5021 32.2398 30.578 32.1105 30.601 31.9356C30.6311 31.1372 30.692 30.3467 30.639 29.5483C30.616 29.2139 30.5096 29.0236 30.4107 28.8337C30.2132 28.4915 30.1824 28.1037 30.1903 27.7009L30.2208 27.6859C30.639 27.5107 31.1027 27.3132 31.6194 27.3132L31.6954 27.2372L31.6194 27.1609C31.1027 27.1609 30.654 27.3361 30.2433 27.5107C30.3878 26.5302 30.7529 26.165 31.0572 25.8612C31.1407 25.7773 31.2091 25.7013 31.2775 25.6254L31.2621 25.5189L31.1557 25.5265C31.0951 25.6024 31.0188 25.6788 30.9428 25.7547C30.616 26.0816 30.2132 26.4843 30.0763 27.5795C29.7112 27.7314 29.3844 27.8604 29.0801 27.8149C29.202 27.2297 29.2704 26.6137 29.3234 26.0665C29.3464 25.8913 29.3614 25.7243 29.3844 25.5569C29.4148 25.3061 29.4148 25.0628 29.4148 24.8348C29.4148 24.5761 29.4073 24.3253 29.4603 24.0895C29.5137 23.854 29.5668 23.6487 29.6123 23.4663C29.7646 22.9037 29.8635 22.5235 29.6581 22.2422L29.4378 21.2843L29.4224 21.2918V21.2918ZM31.3306 17.0951L31.2166 17.2016C31.2091 17.1181 31.1557 17.0267 31.0188 16.9428C30.9049 16.8594 30.3118 16.4107 29.985 16.2817C29.7266 16.1753 29.7037 15.985 29.6202 15.818C29.7492 15.9015 29.8635 16.0004 29.9699 16.1294C30.4641 16.449 30.9278 16.7683 31.3306 17.1027V17.0951ZM20.1396 19.2012C20.4359 19.2162 20.8846 19.2922 21.1888 19.5735C21.6751 20.0297 21.8195 20.0981 22.0704 20.1286C22.3212 20.1591 22.5191 20.0372 22.2607 19.9767C22.0023 19.9157 21.7056 19.6574 21.3483 19.3836C20.991 19.1098 20.6793 18.9349 20.413 18.9958C20.0862 19.0643 19.4551 19.1707 20.1471 19.2087L20.1396 19.2012V19.2012ZM23.7962 21.6491C23.6898 21.1094 23.3705 19.7104 23.0587 20.1666C22.8154 20.5163 22.9222 20.8052 22.9372 21.2463C22.9602 21.7251 22.9068 22.3636 22.9906 22.8048C23.1046 23.4129 22.8613 21.4667 23.2031 20.9571C23.3784 20.7063 23.8421 21.9379 23.7887 21.6491H23.7962V21.6491ZM26.2215 22.0293C26.4724 21.8924 26.7232 21.5806 26.9666 20.8507C26.9515 21.1624 26.9895 21.4667 26.906 21.786C26.7766 22.2647 26.7691 22.7593 26.7007 23.2534C26.9666 22.8807 26.959 22.402 27.0884 21.8999C27.1493 21.6795 27.2937 21.4821 27.1873 21.1019C27.1568 20.9041 27.1189 20.7063 27.0809 20.5013C27.0124 20.1361 26.8297 20.197 26.7462 20.3949C26.5107 20.9191 26.3964 21.4821 26.2215 22.0293ZM26.0012 30.8408C24.4502 31.7682 25.4006 33.2282 25.0659 34.5208C25.5679 33.1823 24.6781 31.9506 26.0012 30.8408ZM26.8376 27.4272C26.7917 27.7844 26.6777 28.0658 26.4344 28.2026C26.5638 28.4309 26.5942 28.6968 26.5867 28.9856C26.8221 28.5829 26.8985 28.0657 26.8376 27.4272ZM26.997 27.1154C26.9135 26.5607 27.2859 26.3019 27.742 26.1045C27.1568 26.2489 26.7082 26.4922 26.7691 27.0928C26.6627 27.9443 26.0241 28.1797 25.0279 27.9898C25.3626 28.2026 25.7274 28.3775 26.2975 28.2711C26.5258 28.4764 26.4573 29.115 26.4194 29.7081C27.0655 29.039 27.2554 28.1797 26.997 27.1154ZM23.4164 24.8044C23.0817 25.9676 23.3099 26.6288 24.777 26.3704C23.7052 26.3478 23.1121 25.9826 23.4164 24.8044ZM23.4848 24.7284C23.9105 24.4622 24.017 25.3211 24.739 25.5343C24.2374 25.0398 24.0474 23.9755 23.4848 24.7284ZM26.161 25.2072C25.598 24.3102 25.545 25.2147 25.0813 25.5723C25.5905 25.5569 25.6514 24.7585 26.161 25.2072ZM23.8116 24.9943C23.3705 24.5915 23.3175 25.5189 23.7812 25.9221C23.5149 25.481 23.3934 25.0628 23.8116 24.9943ZM25.7958 25.2226C26.2215 25.6329 25.8034 25.9522 25.5299 26.1195C26.3889 26.0206 26.237 25.1158 25.7958 25.2226ZM27.3772 22.1587C27.1035 23.5347 26.8677 24.7284 26.237 25.382C26.3509 26.2109 25.4916 26.2564 24.8835 26.3629C25.636 26.4542 26.4419 26.4008 26.4344 25.3745C27.2174 24.4697 27.2099 23.3445 27.3772 22.1587ZM27.2328 19.452C27.4607 18.9654 27.8639 18.3497 28.0613 18.3343C28.2441 18.3193 28.2516 18.874 28.3125 19.1933C28.0767 19.1173 27.9019 19.2542 27.7499 19.4825C28.1832 19.2997 28.7003 19.513 28.6014 19.3607C28.525 18.95 28.4949 18.5017 28.3731 18.0985C28.3046 17.8781 28.0918 17.8857 27.9248 18.015C27.4686 18.3798 27.2479 18.874 27.2328 19.452ZM35.0331 2.30774C35.0105 1.04598 35.5502 0.772195 36.2952 0.756786C37.1466 0.741736 37.6867 1.08396 37.8232 2.33067L37.8082 2.3536C37.7777 2.38371 37.7397 2.39159 37.6788 2.39159C37.5953 2.38371 37.4735 2.34572 37.3065 2.24717C36.8807 1.98844 36.493 1.95046 36.0974 2.03431C35.7096 2.11781 35.3298 2.33067 34.9266 2.58904L34.9116 2.64996L34.9722 2.66537C35.3678 2.40664 35.748 2.20131 36.1203 2.12533C36.493 2.04184 36.8653 2.08735 37.2685 2.33067C37.4434 2.4371 37.5802 2.48261 37.6788 2.49014C37.7472 2.49014 37.8082 2.47509 37.8461 2.44463C37.9601 2.84777 37.8461 3.26561 37.276 2.83236C36.417 2.39912 35.7401 2.64996 34.9342 3.16706C34.6758 3.30396 34.6683 2.82484 35.0331 2.30774V2.30774ZM32.76 12.7387C32.874 12.6322 33.0184 12.5258 33.1782 12.4269C33.1098 12.4348 32.9955 12.3964 32.9729 12.3509C33.8244 11.7123 33.3377 10.1918 34.5239 8.93726C34.44 8.74733 34.4934 8.62585 34.5998 8.53447C34.0222 8.10122 33.8244 7.46228 33.9763 6.63377C34.3794 7.12041 34.8811 7.53861 35.4817 7.88047C36.0748 7.63751 36.66 7.53072 37.2305 7.54613C37.3595 6.99104 37.9146 6.58037 38.2188 6.04822C38.5761 6.77818 38.3862 7.57659 37.968 8.41299C38.5001 8.77026 39.0398 9.18846 39.3286 9.81164C39.4426 10.1388 39.4276 10.4502 39.382 10.7545C39.4806 11.1952 39.5795 11.6439 39.6859 12.0925C39.8913 12.1155 40.0966 12.1001 40.3095 12.0696C40.355 11.8797 40.393 11.6898 40.4388 11.4919C40.393 10.4502 40.355 9.40885 40.3019 8.36712C40.355 7.42429 39.9063 6.71762 39.2297 6.11666C38.8649 5.59239 38.4467 5.21971 37.9221 5.16631C37.9375 4.97639 37.8612 4.86243 37.7852 4.89289C37.8157 5.63038 37.0176 6.17006 36.4471 6.43596C36.7514 6.26896 37.8461 5.50854 37.6562 4.81692C37.6408 4.5736 37.6258 4.33028 37.6103 4.07943C37.8995 3.8207 37.9146 3.44837 37.8386 3.0377C37.7626 3.15954 37.5802 3.16706 37.276 2.93879C36.455 2.52812 35.801 2.74134 35.0485 3.20505C35.0865 3.30395 35.1395 3.33406 35.2309 3.4559C35.3144 3.93501 35.3448 4.36074 35.6032 4.74847C35.7096 4.89289 35.8465 5.00685 36.0064 5.06741C36.2418 5.15126 36.5235 5.15879 36.7439 5.04483C36.9872 4.92299 37.0936 4.62663 37.2685 4.4213C37.1237 4.68755 37.0857 4.99932 36.8273 5.15126C36.569 5.3032 36.2038 5.29568 35.9304 5.1742C35.8541 5.13621 35.7781 5.09034 35.7175 5.02942L35.6795 5.18172C35.7781 5.57699 36.0139 5.98766 36.3486 6.34493C35.9684 6.04822 35.7096 5.65296 35.6111 5.21218V5.20466L35.5351 5.28063C33.0639 6.09409 32.8969 7.47769 33.566 9.06662C33.1933 9.64464 33.1249 10.3513 33.1782 11.0967C33.2617 11.6134 33.1553 11.9252 32.859 12.0241C32.9575 12.3129 32.8511 12.5183 32.7371 12.7236L32.76 12.7387V12.7387ZM43.8446 26.264C43.5482 26.3095 43.077 26.264 42.537 26.1271C42.5144 26.6062 42.423 27.0624 42.4839 27.5107C42.4915 27.8529 42.7043 28.0812 42.9627 28.0736C43.3279 28.4005 43.6776 28.9401 44.2933 28.9172C44.4835 28.8946 44.5746 28.7882 44.643 28.6359C44.7645 28.1571 44.8254 27.663 44.3008 27.0394C44.1109 26.7961 43.8826 26.5528 43.8446 26.264ZM41.3967 14.8372C41.3283 14.5025 41.2673 14.1757 40.9176 13.8259C40.8645 13.689 40.8036 13.5521 40.7427 13.4156C40.7502 13.2633 40.7201 13.1189 40.6438 12.9974C40.4768 12.7082 40.3704 12.4498 40.3095 12.214C40.1496 12.2219 39.9597 12.2294 39.7924 12.237C39.8458 12.3889 40.226 12.7845 40.3474 13.0658C40.4919 13.5901 40.6438 14.1072 40.7961 14.6243C41.0925 14.7533 41.1989 15.073 41.1079 15.5747C41.1154 15.8864 41.1154 16.1903 41.1229 16.5021C41.1079 16.677 41.0849 16.8138 41.0469 16.9278C41.2903 17.0496 41.5562 17.2166 41.8299 17.4374C41.5107 17.2471 41.2369 17.1027 41.0165 17.0117C40.948 17.1482 40.857 17.232 40.7427 17.2625C41.0469 17.4754 41.5641 17.7488 42.3316 18.053C41.7844 17.8781 41.3512 17.7108 41.009 17.5513C40.7656 17.6882 41.3813 18.1365 42.6284 18.6916C43.0466 18.874 42.9856 19.2847 42.6509 19.2997C41.8149 19.3302 41.4727 18.8969 41.3053 18.4028C41.5486 18.7375 41.8604 19.0338 42.4839 19.0718C42.6359 19.0793 42.5828 18.9425 42.4305 18.874C40.8266 18.1444 40.5223 17.6803 40.6058 17.3535C40.5453 17.3231 40.4843 17.2851 40.4313 17.2546L40.3324 17.2245C39.9672 17.1862 39.5949 17.1561 39.2297 17.1181C39.7164 17.7792 40.203 18.4408 40.6972 19.1023C41.009 19.6495 41.2903 20.3415 41.5336 21.1474C41.6171 21.018 41.792 21.018 41.9819 21.1854C43.229 22.3106 43.6851 21.4438 42.5979 20.425C44.3388 21.5047 43.191 23.2154 41.8454 21.6645C41.6855 21.4742 41.6626 21.6946 41.731 21.9533C41.8454 22.455 41.8529 22.1587 42.0353 22.4475C42.461 23.4813 43.1605 24.5306 44.0958 25.5874C43.6927 25.8533 42.1797 22.9721 41.9593 22.5385C42.1188 22.8503 43.168 25.1846 42.6434 25.4885C42.6359 24.4772 42.3696 23.6258 42.0048 22.8428C42.2252 23.5652 42.4839 24.2719 42.5295 25.1083C42.5295 25.367 42.5445 25.5949 42.5445 25.8533V25.9293C43.229 26.1195 44.0729 26.1955 44.1564 26.0282C44.1564 25.9522 44.1338 25.8687 44.1413 25.7927C44.1488 25.4885 44.1564 25.1846 44.1718 24.8728C44.0575 23.4054 43.9435 21.9458 43.8371 20.4859C43.7461 20.0602 43.6472 19.6344 43.5558 19.2087C43.6547 18.7601 43.5103 18.5397 43.1985 18.4787C43.0086 18.0681 42.8262 17.6578 42.6359 17.2396C42.2937 16.6924 41.9518 16.1448 41.6096 15.5972C41.5411 15.3389 41.4727 15.073 41.4118 14.8142L41.3967 14.8372V14.8372ZM35.8695 21.003C35.5957 21.5122 35.5577 22.0598 35.7706 22.6374C35.3982 23.8691 35.6416 24.5761 36.7059 25.42C36.7363 25.7623 36.8349 26.3704 36.9492 26.6667C36.417 27.2297 36.4625 28.0353 36.4776 29.2594C36.1053 28.2861 35.6261 27.587 35.1015 27.0699C35.6717 27.7009 36.0673 28.4309 36.2117 29.3279C35.6111 29.6092 35.3904 30.6204 35.8465 31.0917C35.6186 30.605 35.8999 29.3888 36.7439 29.4192C36.9793 29.001 37.6867 29.0845 37.7931 29.6396C37.7702 29.1075 37.0097 28.8792 36.6829 29.2748L36.6525 29.2669C36.6449 27.9518 36.6829 27.0928 37.1466 26.7277C36.9642 26.0966 36.8578 25.6254 36.8807 25.2226C36.1737 24.7969 35.6717 24.1353 35.9075 22.6299C35.6795 22.0823 35.7175 21.5351 35.8695 21.003V21.003ZM36.0293 30.2632C36.7134 30.3012 37.2305 30.605 37.6408 31.0842C37.9221 30.1947 36.9642 29.4418 36.1128 30.0503C36.7514 29.7461 37.6408 30.2553 37.5724 30.9322C37.2151 30.4302 36.698 30.1338 36.0214 30.2707L36.0293 30.2632V30.2632ZM37.983 29.4268C38.1045 29.3128 38.2643 29.5483 38.5152 29.7916C38.8345 30.1033 39.2376 30.1033 39.3211 30.9777C39.4806 31.9356 39.0549 32.8859 39.5874 33.3651C39.8153 33.57 40.1041 33.6844 39.9063 34.1936C39.7848 34.5053 39.9826 34.7637 40.4843 34.7716C41.0014 34.7791 40.8796 34.3835 40.6592 33.8363C40.4693 33.3572 40.7502 32.7035 40.317 32.3309C39.6175 31.7303 39.7619 30.7419 39.8837 30.4302C40.1116 29.822 40.0966 29.1225 40.1496 28.5449C40.188 28.1797 40.3245 27.9289 40.3324 27.5641C40.3324 27.3587 40.3704 27.1763 40.4539 27.047C39.9292 27.1609 39.4125 27.2523 38.827 27.3283C38.5456 27.7694 38.2489 28.1797 37.9375 28.5373C37.9755 28.8337 38.0135 29.1225 37.9906 29.4268H37.983V29.4268ZM32.1594 18.8894C33.6875 19.9308 35.5122 19.2392 37.1165 18.6386C38.0895 18.2734 38.9714 17.9391 39.6329 18.053C39.7089 18.1444 39.7773 18.2433 39.8608 18.3343C38.1199 17.8477 35.8465 20.7063 32.2885 19.4065C32.0985 19.3607 32.0451 19.0643 32.167 18.8894H32.1594ZM32.6002 18.3114C32.6916 18.3723 32.798 18.4332 32.9045 18.4712C33.1023 18.5397 33.3227 18.5852 33.5735 18.6002C34.8356 18.669 36.7894 18.0301 38.6976 16.9357C38.789 17.0192 38.8954 17.0951 39.0094 17.1407C39.1767 17.3994 39.3362 17.6578 39.5186 17.9086C38.842 17.8477 37.9981 18.167 37.0707 18.5167C35.5122 19.1098 33.7254 19.7789 32.2584 18.8056L32.2885 18.7905C32.5472 18.6461 32.5622 18.5397 32.5927 18.3114H32.6002V18.3114ZM32.7826 17.9921C32.8511 18.038 32.927 18.076 33.0109 18.1139C33.1858 18.1899 33.3911 18.2354 33.6115 18.2508C34.7292 18.3497 36.4396 17.7642 38.4923 16.7074L38.5987 16.8368C36.7134 17.9086 34.8052 18.5321 33.5735 18.4637C33.3377 18.4483 33.1248 18.4103 32.9424 18.3419C32.8131 18.2963 32.6991 18.2354 32.6081 18.1519C32.6307 18.0605 32.6991 18.0075 32.7751 17.9846L32.7826 17.9921V17.9921ZM37.0098 12.0546C37.352 10.8534 36.1737 10.838 35.6261 10.4352C35.6491 10.5111 35.6795 10.5796 35.7096 10.6405C36.2723 10.9444 37.1771 11.0433 36.9567 12.047C36.9413 12.1076 37.0022 12.1076 37.0176 12.047L37.0098 12.0546ZM36.0823 11.1952C36.2497 11.8188 36.4701 12.2749 36.8883 12.1305C36.9033 12.0241 36.9033 11.9327 36.8883 11.8492C36.8503 11.8797 36.7894 11.8872 36.7134 11.8722C36.5156 11.8188 36.2952 11.5754 36.2117 11.34C36.1888 11.2791 36.1812 11.2182 36.1812 11.1651C36.0974 11.1268 36.0064 11.0967 35.9229 11.0587L36.0823 11.2031V11.1952V11.1952ZM39.1158 15.6961C39.1007 15.3163 39.4806 15.073 39.7773 15.2855C40.0891 15.5062 40.226 15.871 40.1116 16.1753C40.4693 15.7875 40.188 15.2779 39.8228 15.0196C39.2376 14.6089 38.8879 15.6051 39.1158 15.6961V15.6961ZM37.8232 15.3693C37.2 13.9628 36.2723 13.02 35.3828 12.1155C35.1624 11.8872 34.9342 11.6593 34.7292 11.431C34.7063 11.5984 34.6987 11.7582 34.6912 11.9177C34.6833 12.2445 34.6987 12.5717 34.7442 12.8985C34.7976 13.2862 34.8507 13.7044 34.8582 14.1377C34.8661 14.5408 34.8277 14.9361 34.7138 15.3163C34.8962 15.3844 35.094 15.4528 35.3069 15.5062C35.3678 15.5213 35.4208 15.5367 35.4817 15.5517C35.9454 15.6582 36.493 15.7341 37.1391 15.7571L37.1846 15.4908C37.0936 14.9587 35.2459 15.6961 35.3599 13.3851C35.5122 15.5822 37.0857 14.6394 37.2685 15.3768C37.3824 15.3693 37.4355 15.3238 37.5114 15.2629C37.6258 15.2934 37.7247 15.3313 37.8311 15.3768L37.8232 15.3693V15.3693ZM40.188 13.8943L40.1195 13.8793C39.8078 13.8334 39.4426 13.9628 39.1007 14.2061C38.7585 14.4494 38.4467 14.8142 38.2719 15.2324C38.2188 15.3618 38.173 15.4908 38.1429 15.6202C38.1959 15.6811 38.2414 15.7571 38.2794 15.8406C38.3174 15.5517 38.4242 15.2934 38.5912 15.0651C38.4772 15.3163 38.4317 15.5897 38.4772 15.894C38.5761 16.616 38.8954 16.9737 39.3971 17.0342C39.7544 17.0572 40.1195 17.0267 40.4768 17.1027C40.7047 17.1636 40.857 17.0117 40.971 16.7604C40.986 16.3727 41.0014 15.985 41.0165 15.5972C41.0774 15.202 41.062 14.9131 40.8416 14.8752C40.6212 14.6168 40.3779 14.3581 40.2715 14.0846C40.2561 14.0008 40.226 13.9399 40.188 13.8943ZM38.1504 6.30695C37.9755 6.70974 37.4889 7.05196 37.2911 7.68302C36.7284 7.60705 36.1053 7.73606 35.5197 8.03277C36.0064 8.10874 36.5536 8.07828 36.7439 8.72439C36.7743 8.8233 36.9793 8.77026 37.0631 8.83871C37.7548 9.55326 38.5761 10.5567 39.0627 11.5754C39.0928 11.6364 39.0169 11.7199 39.0549 11.7657L39.2527 11.7883C39.3441 11.8568 39.3666 11.9707 39.4276 12.0621C39.6175 12.3739 39.8078 12.7845 39.8988 13.1723C40.0511 13.4991 40.188 13.6206 40.3704 13.9399C40.4463 14.0767 40.5073 14.2516 40.6058 14.4036C40.4994 14.0083 40.4614 13.636 40.294 13.2633C40.1955 13.0429 40.1271 12.8376 39.9748 12.6552C39.8153 12.4652 39.6024 12.2445 39.5415 11.9786L39.2376 10.724C39.3362 10.4427 39.2831 10.1768 39.2451 9.84962C38.8879 9.21104 38.2643 8.7398 37.7168 8.50401C38.1808 7.64504 38.4088 6.97599 38.1504 6.29907V6.30695V6.30695ZM33.4746 12.5487C33.3148 12.6781 33.1858 12.891 33.1098 13.1339C33.0338 13.3927 33.0184 13.6815 33.1023 13.9857C33.1858 14.2896 33.3682 14.5938 33.6799 14.8752C34.326 15.4453 35.5122 15.8785 37.5269 15.8864L37.6028 15.9624L37.5269 16.0384C35.4663 16.0308 34.2426 15.5747 33.581 14.9891C33.2467 14.6928 33.0489 14.3581 32.9575 14.0237C32.8665 13.689 32.8815 13.3697 32.965 13.0884C32.988 12.9974 33.0259 12.9214 33.0639 12.8376C32.7371 13.1339 32.5013 13.5066 32.3874 13.8868C32.2809 14.2516 32.2734 14.6243 32.3874 14.9891C32.5092 15.3464 32.7525 15.6886 33.1478 15.9774C33.9383 16.5401 35.3069 16.8823 37.4355 16.7074L37.5193 16.7759L37.4509 16.8594C35.2839 17.0342 33.8777 16.6845 33.0639 16.0993C32.6382 15.795 32.3723 15.4302 32.2429 15.0346C32.1136 14.6469 32.1215 14.2366 32.2429 13.8488C32.4178 13.2783 32.8285 12.7541 33.4062 12.3964C33.3682 12.3889 33.3148 12.3739 33.2467 12.3359C33.4441 12.2749 33.5886 12.123 33.6875 11.7582C33.9537 10.7924 33.8623 9.97146 34.8356 9.04369C34.6758 8.75485 34.7672 8.62585 35.0865 8.64842C34.5998 8.15426 34.2805 7.65256 34.1741 7.14334C34.5769 7.53861 35.018 7.8579 35.4817 8.16178C35.748 8.16178 36.5385 8.26821 36.5765 8.61796C36.5235 8.81577 36.6525 8.89174 36.8653 8.9222C37.5724 9.7052 38.2188 10.5265 38.789 11.393C38.827 11.7199 38.9714 11.9406 39.2072 12.1076C39.4046 12.4043 39.6254 12.6856 39.7013 13.1038C39.7544 13.3013 39.8683 13.4991 40.0052 13.6969C39.6938 13.6969 39.3362 13.8259 39.0169 14.0617C38.6521 14.3201 38.3253 14.7078 38.135 15.1489C38.097 15.2475 38.059 15.3464 38.0285 15.4453C37.39 13.9323 36.4246 12.944 35.4971 11.9936C35.2459 11.7353 34.9951 11.4844 34.7597 11.2182C34.7747 11.1042 34.7976 10.9978 34.8202 10.8838C34.9342 10.3212 35.1169 9.90301 35.3678 9.59877C35.6111 9.29489 35.9229 9.09708 36.2952 8.96772L36.3407 8.86917L36.2418 8.8233C35.8465 8.96019 35.5122 9.17305 35.2459 9.49987C34.98 9.82704 34.7898 10.2603 34.6683 10.8534C34.5923 11.2182 34.5543 11.5604 34.5464 11.9026C34.5389 12.237 34.5543 12.5717 34.5998 12.906C34.6529 13.2862 34.7063 13.7119 34.7138 14.1226C34.7217 14.5025 34.6912 14.8827 34.5844 15.24C34.2501 15.0955 33.9842 14.9207 33.7788 14.7383C33.5964 14.5788 33.4595 14.4036 33.3606 14.229C33.2617 13.9477 33.2467 13.613 33.3377 13.1948C33.3911 12.9895 33.4441 12.7691 33.4975 12.5412L33.4746 12.5487V12.5487ZM33.2768 14.8752C33.2087 15.0955 33.1553 15.5671 33.1478 15.833C34.2271 16.563 35.8619 16.7149 37.4889 16.5935C37.5648 16.4641 37.5953 16.2512 37.5648 16.1373C35.5577 16.1677 33.9763 15.6811 33.2768 14.8752V14.8752ZM33.0639 16.2362C33.0259 16.8594 33.0338 17.3535 33.0034 17.962L33.0639 17.9921C33.2238 18.0605 33.4137 18.0985 33.6265 18.1215C34.7217 18.2128 36.4016 17.6424 38.4317 16.601C38.3253 16.4186 38.2489 16.2057 38.2339 16.0154C38.097 15.7115 37.7322 15.5592 37.5344 15.4908C37.7093 15.8255 37.8157 16.3426 37.6028 16.7225C37.6867 16.9428 37.4659 17.0038 37.3595 17.0117C36.1737 17.1407 34.0677 17.0722 33.0639 16.2437V16.2362V16.2362ZM38.021 36.2846L38.0515 36.2767C38.2264 36.2082 38.8499 36.3526 39.1538 36.429C39.4505 36.5049 39.6254 36.5659 39.9522 36.429C40.2715 36.2921 40.4388 36.2007 40.7961 36.2541C41.1534 36.3071 41.5257 36.4895 42.0048 36.3831C42.4839 36.2846 42.6284 36.1172 42.8487 36.2082C43.0691 36.2921 43.2669 36.3605 43.4038 36.3605H43.4264C43.4873 36.2082 43.4949 36.0412 43.5253 35.8814C43.5938 35.4328 43.6013 34.992 43.4798 34.5738C43.3279 34.0492 43.4949 33.8058 43.3125 33.4636C42.9627 32.8025 42.6663 32.1789 42.6588 31.5249C42.6509 30.7724 42.9401 30.628 42.5904 29.5027C42.3926 28.5753 42.7194 27.3283 41.5257 26.895C41.4347 26.8646 41.3433 26.8341 41.2598 26.819C41.8224 26.6137 42.2406 26.3553 42.423 25.9981C41.7464 26.6972 40.0815 26.9785 38.9334 27.1459C40.4463 24.675 41.3433 21.2234 40.1496 18.7375C41.3433 22.0218 39.8683 25.9522 37.8082 28.4614C37.8461 28.9477 37.93 29.4114 37.8386 29.7991H37.8461C37.8157 29.9514 37.8006 30.1413 37.7931 30.3846C37.8917 31.373 37.4889 31.6468 36.8048 31.5328C36.5994 32.027 36.8123 32.3688 37.2455 32.6881C37.6867 33.0988 37.314 34.0642 37.4964 35.0604C37.5802 35.4937 37.8386 35.7904 38.0135 36.1552L38.0285 36.2846H38.021V36.2846ZM6.77376 34.9311C6.77376 34.9311 7.35931 34.7637 7.48868 34.5813C7.61768 34.4064 7.61768 34.2695 7.861 34.3914C8.10433 34.5129 8.63648 34.6193 8.56051 34.3154C8.49206 34.0187 8.56051 33.8818 8.75043 33.9047C8.94072 33.9277 9.19909 33.7374 9.37397 33.9277C9.54884 34.1251 9.69326 34.2925 9.8151 34.1936C9.93658 34.0947 10.1039 33.9882 10.1799 34.0567C10.2559 34.1176 10.902 34.3989 11.3127 34.4519C11.6699 34.4978 11.5635 34.414 11.8373 34.3835C12.0046 34.1251 11.9892 33.8363 11.9512 33.5399C11.9971 33.3651 12.0426 33.1977 12.0881 33.0304C12.1111 32.4756 12.3314 32.2398 12.5063 31.9205C12.5823 31.7077 12.6507 31.4948 12.5518 31.1676C12.4454 31.0157 12.4074 30.8562 12.5063 30.681L12.5823 30.5746L12.6432 30.514V30.5065C13.0689 30.0808 13.7989 30.1263 14.1788 30.7039C14.0422 30.0503 13.1983 29.7916 12.6661 30.2173V30.1643C13.0234 29.4952 13.9358 29.4418 14.3766 30.1188C14.2167 29.3583 13.0919 29.1379 12.6357 29.9055C12.6128 29.807 12.5823 29.731 12.5443 29.6547L12.5368 29.6396C12.5518 28.6739 15.1295 27.6705 13.9659 25.8837C14.7643 27.4881 13.3047 28.1191 12.6282 28.8717C12.6661 28.7577 12.6887 28.6208 12.6812 28.4614C12.7801 27.792 12.6282 27.3283 12.5443 26.804C12.4228 26.2944 12.4913 25.9221 12.6507 25.5949C12.6507 24.8119 12.6507 24.0289 12.6507 23.2456C12.6583 23.0786 12.6661 22.9112 12.6661 22.7363C12.0501 22.0064 12.2705 21.2004 13.3427 20.3185C15.6616 21.824 18.1626 21.7326 20.7477 21.0105C20.8086 22.4626 21.2569 23.9909 21.7665 25.5265C21.158 26.857 20.5349 28.3775 19.9343 29.5178C19.6529 30.0503 19.9188 30.7649 19.4322 31.1676C19.0065 31.5174 18.7786 31.7532 18.9839 32.5817C19.1588 33.2887 19.0445 34.4369 18.2084 34.4519C17.7293 34.4674 17.3111 33.8134 17.4634 32.8859C17.5698 32.2019 17.9651 31.6543 17.8053 30.8333C17.5394 29.4952 18.3453 28.8412 19.782 29.2748C19.2423 28.8566 18.4973 28.9631 18.0791 29.2444C18.1855 27.663 19.4401 26.5987 20.9681 25.7243C19.2197 26.5223 18.2539 27.64 17.8357 28.9781C17.2581 28.5674 16.9083 28.1876 16.4371 27.8529C16.3002 27.754 16.1633 27.7009 16.0415 27.7009C16.9463 25.6329 15.5323 24.599 14.5819 25.1466C13.5326 24.4772 13.3728 23.4964 13.7989 22.4095C13.1524 23.4358 13.3728 24.4622 14.6124 25.5114C15.1141 24.7585 16.1784 25.3136 16.1328 26.4997C16.1099 27.1229 15.8361 27.678 15.4484 28.1417C15.1674 28.4764 14.7797 28.7957 14.9317 29.3659C15.0306 29.5407 14.9241 29.7385 14.7948 30.1188C14.7034 30.4302 14.8327 30.6735 14.521 31.0612C14.0877 31.5174 13.8294 32.0875 13.8978 32.8859C14.0497 33.2052 13.8899 33.7299 13.6011 34.3305L13.7455 34.3455C14.0648 34.3989 14.483 34.5738 14.6808 34.4064C14.8861 34.2391 14.8783 34.262 15.0456 34.2695C15.2054 34.2774 15.4409 34.2391 15.6842 34.2391C15.9275 34.2391 16.589 34.414 16.7259 34.4598C16.8628 34.5129 17.2506 34.7791 17.6229 34.7032C17.9956 34.6268 18.0486 34.6042 18.2464 34.6573C18.4442 34.7107 18.5657 34.7333 18.6872 34.6802C18.809 34.6268 18.7176 34.5587 18.9534 34.6268C19.1892 34.6953 19.4322 34.7333 19.5161 34.6802C19.5996 34.6347 19.8203 34.5358 19.9722 34.6652C20.1242 34.7942 20.3829 35.2199 20.6183 35.2048C20.8541 35.1894 21.3634 35.2048 21.5078 35.5392C21.6601 35.8739 21.8425 36.1172 22.0403 36.0488C22.2377 35.9728 22.2682 35.9269 22.3517 35.9728C22.4356 36.0108 22.504 36.1401 22.7928 36.1093C23.0817 36.0792 23.0362 36.0258 23.302 36.1247C23.5683 36.2236 23.6898 36.2236 23.7736 36.1932C23.8496 36.1702 23.9786 36.1093 24.1384 36.2541C24.2144 36.3225 24.2904 36.3756 24.3664 36.4211C24.4047 36.2007 24.5187 36.0638 24.6781 35.9649V35.9499C25.0963 35.2353 25.4841 34.3609 25.3626 33.2357C25.3472 34.262 25.1268 34.8551 24.6555 35.661C24.2144 34.9311 24.5337 34.0416 24.2449 33.3041C23.7507 31.6923 23.2411 30.1413 22.7473 28.5295C22.5345 27.5945 21.9489 27.4426 22.0858 26.4008L21.9564 25.5874L21.9414 25.0552C21.9034 23.6182 21.964 22.1812 22.1467 20.7597L22.1542 20.6762L22.0858 20.6303C22.0023 20.5773 21.8955 20.5618 21.7891 20.5468C21.6751 20.5393 21.5612 20.5314 21.4472 20.5088C21.1279 20.4708 20.8617 20.3719 20.5958 20.1741C20.3295 19.9767 20.1167 19.8702 19.8353 19.7179C19.5996 19.5889 19.4781 19.4445 19.5695 19.2847C19.6529 19.1403 19.7594 19.1098 19.8884 19.0643C20.413 18.859 20.8692 18.8285 21.3254 19.2087C21.6751 19.5509 21.9944 19.8853 22.504 19.9613L22.5875 19.9767L22.633 19.9082C22.8993 19.5051 23.0286 18.912 23.1046 18.4408L23.1196 18.3648L23.0666 18.3193C22.6255 17.9161 22.1922 17.4754 22.1467 16.8518C22.3976 17.1256 22.671 17.3306 23.0362 17.4374C23.6597 17.6123 23.0666 16.1143 22.9372 15.894L22.9068 15.7875C23.0132 15.5062 23.0207 15.2249 22.9523 14.9361C22.9523 14.8372 22.8993 14.2896 22.9448 14.1986C23.3554 13.6589 24.7846 13.6281 25.3701 13.9628C25.8188 14.2212 26.2749 14.7232 26.7232 15.5897C27.3468 15.5288 27.9778 15.4682 28.5329 15.5062C28.6164 15.5517 28.7304 15.5972 28.8218 15.6126C29.0575 15.6657 29.1866 15.7341 29.331 15.909C29.4757 16.0839 29.3084 16.0993 29.5972 16.3043C29.8785 16.5171 30.6615 16.8518 30.8593 16.9737C31.0572 17.0951 30.9658 17.2546 30.7984 17.1482C30.6311 17.0496 30.1064 16.7303 29.7492 16.6239C29.3919 16.5171 28.8827 16.563 28.6698 16.4261C28.4491 16.2892 28.2441 16.3197 28.2516 16.5476C28.2591 16.7834 27.9474 16.677 27.689 16.6314C27.4306 16.578 27.7195 17.2091 27.7195 17.2091L27.8865 17.1561C27.8865 17.1561 27.8105 16.9737 27.7879 16.8973C27.7041 16.677 28.0463 16.8669 28.2212 16.8518C28.4036 16.8368 28.396 16.7379 28.358 16.601C28.3201 16.4716 28.5634 16.4412 28.5784 16.6085C28.5938 16.8214 29.4528 16.7454 29.6581 16.7909C30.0989 16.8898 30.563 17.2396 30.8518 17.384C30.9504 17.4295 31.0417 17.4374 31.1102 17.4144C30.9658 17.6882 30.9278 18 30.9353 18.3114V18.3268L30.9428 18.3419C31.0722 18.783 31.1937 19.2162 31.2775 19.6649C31.2926 19.7255 31.3001 19.7864 31.3155 19.8473C31.2621 19.7939 31.1937 19.7333 31.1177 19.6875C30.1369 19.1023 29.4073 19.2772 28.7078 19.3302C29.5137 19.3227 30.2738 19.4366 31.1177 19.9992C31.399 20.1816 31.4295 20.3264 31.0417 20.425C30.6691 20.5163 30.4336 20.5163 30.1294 20.7597C29.5137 21.2538 28.7383 21.2843 28.1602 20.7292C27.8485 20.4328 27.5976 20.5543 27.3088 20.6987C27.6051 20.6303 27.8714 20.6683 28.1373 20.9116C28.4871 21.2309 28.8748 21.3603 29.293 21.3223L29.5137 22.3031L29.5288 22.3335C29.7037 22.5615 29.6048 22.9112 29.4679 23.4358C29.4148 23.6258 29.3614 23.8311 29.3084 24.0669C29.255 24.3177 29.255 24.5761 29.255 24.8499C29.255 25.0703 29.255 25.2986 29.2245 25.5494C29.202 25.7013 29.1866 25.8762 29.164 26.0586C29.1031 26.6137 29.0271 27.2523 28.9052 27.8454L28.8977 27.8604L28.8902 27.8833C28.8673 27.9898 28.8447 28.0962 28.8142 28.2026V28.218C28.4871 29.4038 28.1832 30.1489 27.8943 30.6509C27.4837 31.3655 27.1339 31.6238 27.0429 32.3688C26.9515 32.696 26.8221 32.9544 26.6853 33.1522C26.6702 33.3421 26.6627 33.5321 26.6473 33.7223C26.7082 33.9503 27.073 33.8818 26.9365 34.7333C26.9286 35.1894 26.7232 35.4862 26.2291 35.5546L26.29 36.2236C26.3814 36.2846 26.4799 36.3451 26.6931 36.2767C27.0429 36.1627 27.4686 36.0334 27.765 36.0029C28.0613 35.9728 27.7725 35.775 28.1681 35.8664C28.5634 35.9574 28.7304 35.9649 28.8368 35.9043C28.9436 35.8434 28.9586 35.5621 29.2779 35.6836C29.6048 35.8054 30.4487 35.9348 30.6995 35.851C30.9504 35.7675 30.8138 35.661 31.0873 35.7295C31.3686 35.7979 31.6954 35.851 31.8627 35.7596C32.0301 35.6686 32.0071 35.7216 32.3874 35.8434C32.7751 35.9649 32.6156 35.9119 32.8665 36.0258C33.1173 36.1401 33.1248 36.1172 33.3452 35.9574C33.566 35.7979 33.7254 35.8205 33.8777 35.8965C34.0297 35.9803 34.0677 36.1018 34.326 36.0029C34.5844 35.9119 34.9876 35.9423 35.3448 36.0638C35.6946 36.1781 35.824 36.406 36.1278 36.2616C36.2877 36.1857 36.3257 36.1172 36.3941 36.0868L36.417 35.8814C36.3636 35.4937 36.3561 35.0909 36.2647 34.7107C36.1203 34.0871 35.8924 33.4865 35.7096 32.8784C35.6946 32.065 35.2993 31.4794 34.8962 30.8788C34.402 30.0729 33.8014 29.2748 32.9955 26.7735C32.5622 26.112 32.3268 25.4505 32.0985 24.7969C31.8627 24.2643 31.6879 23.6716 31.6119 22.9721C31.475 21.6871 31.6803 20.5393 32.167 19.5051C35.8695 20.9041 38.3174 17.9391 39.8078 18.4942C41.062 19.0643 41.5336 21.862 42.0199 23.2076C42.2331 23.7931 42.3546 24.4166 42.4535 25.0323C42.499 25.3136 42.4456 25.5949 42.4456 25.8837C42.4384 26.4163 42.0278 28.2406 42.9247 28.1876C43.0161 28.294 43.0996 28.408 43.191 28.5144C43.4723 28.9097 44.0044 29.2444 44.5215 28.9555C44.9243 28.6513 44.9928 27.9747 44.681 27.3512C44.5441 27.0849 44.027 26.7051 43.9969 26.2944C43.9969 26.226 44.2323 26.3629 44.2402 26.2109C44.2402 25.9902 44.2248 26.0282 44.2173 25.8078C44.2098 25.6709 44.2022 25.5415 44.1944 25.4125C44.2022 25.2831 44.2098 25.1617 44.2173 25.0323C44.2248 24.6066 44.2402 24.1809 44.2478 23.7551C44.0729 22.3561 44.0879 20.9191 43.7081 19.5585C43.5178 19.1707 43.9285 18.8514 43.3809 18.3877C43.0616 18.3114 43.0845 17.6578 42.7498 17.3614C43.168 17.5893 43.5482 17.8477 43.7611 18.2204C44.2248 18.7905 44.5516 19.513 44.719 20.4328C44.9318 21.2309 45.1447 22.0218 45.3576 22.8198C45.4719 24.044 45.4414 25.1541 45.0537 25.9981C44.9394 26.4313 44.8483 26.7961 44.7419 27.2297C45.0612 27.5565 45.1752 28.4309 44.6355 28.9935C44.7494 30.3391 44.0729 30.3922 44.2022 31.3884C44.4147 32.3158 44.1639 32.7035 44.0804 33.3572C43.974 34.1556 43.936 34.9615 43.9435 35.7675C43.9435 35.9954 43.989 36.2161 43.9664 36.4365V36.4516L43.974 36.4591C44.1259 36.5275 44.2703 36.5505 44.4377 36.4971C44.5975 36.4365 44.7115 36.4136 44.8104 36.444C44.9093 36.4745 45.0838 36.6114 45.2207 36.596C45.3576 36.5809 45.6238 36.6418 45.6238 36.6418H5.16978C5.16978 36.6418 5.04041 35.9269 5.49659 35.752C5.9603 35.5696 6.43189 35.3263 6.51539 35.1593C6.59888 34.992 6.75119 34.9311 6.75119 34.9311H6.77376V34.9311ZM32.7067 15.9774C32.2429 16.4032 31.7717 16.8748 31.3076 17.3005C31.1027 17.5739 31.0417 17.9161 31.0493 18.2963C31.3155 19.2012 31.4979 19.9767 31.5664 20.9116C31.7337 20.4554 31.8932 20.0071 32.053 19.5585C31.7337 19.0568 31.9387 18.874 32.2885 18.5092C32.4633 18.3419 32.3189 17.8556 32.8511 17.8326C32.859 17.3005 32.8891 16.7454 32.912 16.1903L32.7067 15.985V15.9774V15.9774Z" fill="#366045"/>
<path fill-rule="evenodd" clip-rule="evenodd" d="M146.806 21.5479C146.806 20.3571 146.944 18.7632 147.662 17.7594C148.203 17.0115 148.991 16.775 149.886 16.775C150.782 16.775 151.549 17.0015 152.08 17.7494C152.799 18.7435 152.936 20.3672 152.936 21.5479C152.936 22.7287 152.799 24.3427 152.09 25.3364C151.559 26.0843 150.782 26.3108 149.896 26.3108C148.991 26.3108 148.213 26.0843 147.662 25.3268C146.944 24.333 146.806 22.7287 146.806 21.5479V21.5479ZM160.002 26.5566C160.179 26.232 160.346 25.8876 160.484 25.5432C161.006 24.2345 161.213 22.8272 161.213 21.4297C161.213 18.34 160.396 15.4076 158.162 13.1933C155.928 10.9694 152.976 10.1624 149.886 10.1624C146.786 10.1624 143.805 10.9593 141.571 13.213C139.337 15.4663 138.55 18.4679 138.55 21.5773C138.55 24.6968 139.337 27.6887 141.571 29.9517C143.805 32.2053 146.767 33.022 149.886 33.022C150.723 33.022 151.588 32.9435 152.415 32.845C153.104 32.7762 153.842 32.6877 154.541 32.6877H161.98V26.5566H160.002V26.5566ZM128.738 22.4531L127.981 19.9733L127.154 22.4531H128.738ZM130.913 28.84H125.088L123.73 32.6776H115.454L124.045 10.4476H132.448L141.217 32.6776H132.271L130.913 28.84V28.84ZM108.506 21.7744L104.826 10.4476H96.353L104.039 32.6776H112.492L120.482 10.4476H112.236L108.496 21.7744H108.506ZM87.3881 26.4781H88.1657C88.7168 26.4781 89.8188 26.429 90.3011 26.1237C90.5469 25.9664 90.5666 25.6711 90.5666 25.4056C90.5666 25.13 90.5272 24.9333 90.2911 24.7856C89.7793 24.4706 88.7462 24.4212 88.1657 24.4212H87.3881V26.4878V26.4781V26.4781ZM87.3881 18.3891H88.1657C88.6477 18.3891 89.5729 18.3496 89.9958 18.0644C90.1929 17.9365 90.2126 17.72 90.2126 17.4935C90.2126 17.2574 90.1732 17.1001 89.9761 16.9721C89.5235 16.6865 88.6774 16.6374 88.1657 16.6374H87.3881V18.3891ZM68.2187 22.4531L67.4611 19.9733L66.6344 22.4531H68.2187ZM79.5057 29.6567V10.4576H88.1754C90.4882 10.4576 93.3517 10.6838 95.3987 11.8746C97.2585 12.9668 98.1737 14.6987 98.1737 16.8442C98.1737 18.2514 97.7405 19.5501 96.7661 20.5836C96.5794 20.7803 96.3727 20.9574 96.1659 21.1247C96.54 21.3512 96.8747 21.6268 97.1893 21.9317C98.2916 23.0437 98.7442 24.4706 98.7442 26.0155C98.7442 28.0918 98.0064 29.9026 96.2745 31.1227C94.444 32.4021 91.9345 32.6973 89.7596 32.6973H71.7513L70.3935 28.8594H64.5678L63.2097 32.6973H54.9238L63.515 10.4673H71.9287L79.5057 29.6664V29.6567Z" fill="#366045"/>
<path fill-rule="evenodd" clip-rule="evenodd" d="M56.8528 31.3593L64.4201 11.7764H71.0231L78.7481 31.3593H72.6762L71.3184 27.5213H63.6131L62.2553 31.3593H56.8428H56.8528V31.3593ZM69.99 23.7719L67.5102 15.614L64.7842 23.7719H69.99Z" fill="#FFCC2B"/>
<path fill-rule="evenodd" clip-rule="evenodd" d="M80.8246 31.3593V11.7764H88.1658C91.1179 11.7764 93.3025 12.1895 94.7197 13.0062C96.127 13.833 96.8354 15.1022 96.8354 16.8342C96.8354 17.9855 96.4911 18.9302 95.7923 19.6587C95.0935 20.3869 94.0503 20.9183 92.6531 21.243C94.2668 21.5282 95.4576 22.0693 96.2352 22.8566C97.0125 23.6439 97.4059 24.6871 97.4059 26.0058C97.4059 27.7969 96.7763 29.135 95.497 30.0305C94.2277 30.9163 92.3087 31.3689 89.7401 31.3689H80.8149L80.8246 31.3593V31.3593ZM86.0698 19.7175H88.1658C89.3369 19.7175 90.183 19.5404 90.7245 19.1763C91.2656 18.8219 91.5411 18.2611 91.5411 17.5036C91.5411 16.775 91.2555 16.2339 90.6947 15.8698C90.1242 15.5057 89.2875 15.3287 88.1658 15.3287H86.0698V19.7275V19.7175V19.7175ZM86.0698 27.8065H88.1658C89.4846 27.8065 90.4389 27.6195 91.0194 27.2457C91.6003 26.8716 91.8952 26.2617 91.8952 25.4056C91.8952 24.6183 91.6003 24.0378 90.9997 23.6636C90.3994 23.2899 89.4548 23.0928 88.1755 23.0928H86.0795V27.8065H86.0698V27.8065Z" fill="#FFCC2B"/>
<path fill-rule="evenodd" clip-rule="evenodd" d="M104.973 31.3593L98.2031 11.7764H103.862L108.496 26.0352L113.2 11.7764H118.603L111.567 31.3593H104.973Z" fill="#FFCC2B"/>
<path fill-rule="evenodd" clip-rule="evenodd" d="M117.383 31.3593L124.95 11.7764H131.553L139.278 31.3593H133.206L131.848 27.5213H124.143L122.785 31.3593H117.373H117.383V31.3593ZM130.529 23.7719L128.05 15.614L125.324 23.7719H130.529Z" fill="#FFCC2B"/>
<path fill-rule="evenodd" clip-rule="evenodd" d="M145.487 21.5479C145.487 23.5651 145.861 25.0906 146.599 26.104C147.337 27.1274 148.439 27.6295 149.896 27.6295C151.342 27.6295 152.435 27.1178 153.173 26.104C153.901 25.0906 154.265 23.5651 154.265 21.5479C154.265 19.5207 153.901 17.9955 153.173 16.9818C152.444 15.9583 151.352 15.4566 149.896 15.4566C148.439 15.4566 147.337 15.9683 146.599 16.9918C145.861 18.0152 145.487 19.5304 145.487 21.5479ZM157.325 27.8853H160.671V31.3689H154.55C154.068 31.3689 153.32 31.418 152.277 31.5362C151.244 31.6445 150.447 31.7032 149.896 31.7032C146.747 31.7032 144.287 30.8081 142.525 29.0267C140.763 27.2357 139.878 24.7659 139.878 21.5873C139.878 18.399 140.754 15.9189 142.515 14.1479C144.267 12.3766 146.727 11.4907 149.886 11.4907C153.015 11.4907 155.456 12.3665 157.227 14.1282C158.998 15.8895 159.884 18.3299 159.884 21.4296C159.884 22.7978 159.677 23.9983 159.254 25.0511C158.831 26.0943 158.181 27.0389 157.306 27.8853H157.325Z" fill="#FFCC2B"/>
<path fill-rule="evenodd" clip-rule="evenodd" d="M153.675 39.3595L153.616 39.2119C153.596 39.1431 153.586 39.0546 153.566 38.9464C153.468 39.1234 153.33 39.2513 153.163 39.3398C152.996 39.4283 152.809 39.4778 152.582 39.4778C152.258 39.4778 152.002 39.3692 151.824 39.1431C151.647 38.9266 151.559 38.6217 151.559 38.2375C151.559 37.8835 151.638 37.6079 151.795 37.3915C151.952 37.1847 152.267 36.9682 152.74 36.7615C152.789 36.7418 152.858 36.7124 152.936 36.673C153.32 36.5056 153.517 36.3189 153.517 36.0924C153.517 35.9545 153.478 35.8563 153.409 35.7774C153.33 35.7086 153.222 35.6692 153.084 35.6692C152.907 35.6692 152.769 35.7183 152.691 35.8169C152.612 35.9154 152.563 36.0631 152.563 36.2695V36.358H151.598C151.598 35.876 151.716 35.5316 151.952 35.3152C152.189 35.0984 152.563 34.9805 153.084 34.9805C153.606 34.9805 153.97 35.079 154.176 35.2854C154.383 35.4822 154.491 35.8366 154.491 36.3386V38.7593C154.491 38.8772 154.501 38.9854 154.521 39.084C154.541 39.1825 154.58 39.2807 154.629 39.3692H153.675V39.3595V39.3595ZM153.537 37.1259C153.163 37.3126 152.907 37.48 152.779 37.6276C152.651 37.7753 152.582 37.9523 152.582 38.149C152.582 38.3361 152.622 38.4837 152.691 38.5722C152.759 38.6607 152.878 38.7002 153.025 38.7002C153.202 38.7002 153.33 38.6217 153.409 38.474C153.498 38.3264 153.537 38.0999 153.537 37.795V37.1159V37.1259V37.1259ZM149.453 40.7865V39.9795C149.611 39.9795 149.709 39.9598 149.748 39.9107C149.788 39.8616 149.807 39.7337 149.807 39.5169V35.079H150.782V39.5269C150.782 40.0877 150.713 40.4421 150.585 40.5797C150.447 40.7274 150.181 40.7962 149.778 40.7962H149.62L149.453 40.7765V40.7865V40.7865ZM149.807 34.5573V33.6718H150.791V34.5573H149.807ZM148.036 37.8932H148.971V37.982V38.0605C148.971 38.5525 148.853 38.9069 148.627 39.1331C148.4 39.3595 148.026 39.4778 147.524 39.4778C147.259 39.4778 147.032 39.4481 146.855 39.3792C146.678 39.3104 146.531 39.2119 146.412 39.0743C146.274 38.9069 146.176 38.7002 146.117 38.4443C146.058 38.1884 146.038 37.7459 146.038 37.0865C146.038 36.5647 146.058 36.191 146.117 35.9742C146.166 35.7481 146.245 35.561 146.373 35.4234C146.501 35.2758 146.658 35.1675 146.855 35.0887C147.052 35.0099 147.288 34.9805 147.564 34.9805C147.829 34.9805 148.056 35.0199 148.243 35.0984C148.439 35.1772 148.597 35.3051 148.715 35.4628C148.823 35.6004 148.902 35.7875 148.942 36.0039C148.991 36.2204 149.01 36.5647 149.01 37.0471V37.3718H147.062L147.052 37.48C147.052 37.5194 147.052 37.5685 147.052 37.6473C147.052 38.0508 147.091 38.3361 147.16 38.5034C147.239 38.6708 147.357 38.7493 147.544 38.7493C147.721 38.7493 147.839 38.6805 147.918 38.5525C147.997 38.4149 148.036 38.2082 148.036 37.9129V37.8932V37.8932ZM147.042 36.683H148.007V36.5056C148.007 36.2107 147.967 36.0136 147.898 35.9054C147.829 35.7972 147.701 35.738 147.524 35.738C147.347 35.738 147.229 35.7972 147.15 35.9154C147.081 36.0333 147.042 36.2304 147.042 36.5157V36.5748V36.6927V36.683ZM145.3 35.079V39.3595H144.326V38.9363C144.228 39.1133 144.1 39.2416 143.952 39.3398C143.805 39.4283 143.628 39.4778 143.43 39.4778C143.125 39.4778 142.879 39.3889 142.722 39.2119C142.555 39.0349 142.476 38.779 142.476 38.4443V35.079H143.43V37.8734C143.43 38.1591 143.46 38.3558 143.529 38.464C143.598 38.5722 143.706 38.6217 143.854 38.6217C144.021 38.6217 144.139 38.5626 144.208 38.4443C144.277 38.3264 144.306 38.1196 144.306 37.8147V35.079H145.3V35.079ZM140.636 38.9955C140.557 39.1528 140.449 39.271 140.311 39.3495C140.173 39.4283 140.006 39.4678 139.799 39.4678C139.396 39.4678 139.11 39.3104 138.943 38.9757C138.776 38.6511 138.697 38.0508 138.697 37.1947C138.697 36.358 138.786 35.7774 138.953 35.4528C139.121 35.1281 139.415 34.9608 139.829 34.9608C140.035 34.9608 140.213 35.0099 140.36 35.0984C140.508 35.1872 140.616 35.3345 140.695 35.5216V35.069H141.63V40.7865H140.636V38.9854V38.9955ZM140.154 35.7875C139.977 35.7875 139.858 35.876 139.799 36.0433C139.74 36.2107 139.701 36.6335 139.701 37.2929C139.701 37.8734 139.73 38.2375 139.799 38.4049C139.858 38.5626 139.977 38.641 140.154 38.641C140.35 38.641 140.488 38.5525 140.557 38.3658C140.636 38.1788 140.665 37.7065 140.665 36.9485C140.665 36.4762 140.626 36.1612 140.557 36.0136C140.478 35.8663 140.35 35.7875 140.154 35.7875ZM137.172 39.3595L137.113 39.2119C137.093 39.1431 137.083 39.0546 137.064 38.9464C136.955 39.1234 136.827 39.2513 136.66 39.3398C136.493 39.4283 136.306 39.4778 136.08 39.4778C135.755 39.4778 135.499 39.3692 135.322 39.1431C135.145 38.9266 135.046 38.6217 135.046 38.2375C135.046 37.8835 135.125 37.6079 135.283 37.3915C135.44 37.1847 135.755 36.9682 136.227 36.7615C136.276 36.7418 136.335 36.7124 136.424 36.673C136.808 36.5056 137.005 36.3189 137.005 36.0924C137.005 35.9545 136.975 35.8563 136.896 35.7774C136.818 35.7086 136.71 35.6692 136.572 35.6692C136.395 35.6692 136.257 35.7183 136.178 35.8169C136.09 35.9154 136.05 36.0631 136.05 36.2695V36.358H135.086C135.086 35.876 135.204 35.5316 135.44 35.3152C135.676 35.0984 136.05 34.9805 136.572 34.9805C137.093 34.9805 137.457 35.079 137.664 35.2854C137.871 35.4822 137.979 35.8366 137.979 36.3386V38.7593C137.979 38.8772 137.989 38.9854 138.009 39.084C138.028 39.1825 138.067 39.2807 138.117 39.3692H137.152L137.172 39.3595V39.3595ZM137.034 37.1259C136.66 37.3126 136.414 37.48 136.276 37.6276C136.139 37.7753 136.08 37.9523 136.08 38.149C136.08 38.3361 136.119 38.4837 136.188 38.5722C136.257 38.6607 136.365 38.7002 136.522 38.7002C136.69 38.7002 136.827 38.6217 136.906 38.474C136.995 38.3264 137.034 38.0999 137.034 37.795V37.1159V37.1259V37.1259ZM132.301 39.3595L131.022 33.6718H132.153L133 38.2081L133.767 33.6718H134.889L133.698 39.3595H132.301ZM127.745 37.8932H128.68V37.982V38.0605C128.68 38.5525 128.561 38.9069 128.335 39.1331C128.099 39.3595 127.735 39.4778 127.233 39.4778C126.967 39.4778 126.741 39.4481 126.564 39.3792C126.386 39.3104 126.239 39.2119 126.121 39.0743C125.983 38.9069 125.885 38.7002 125.826 38.4443C125.767 38.1884 125.747 37.7459 125.747 37.0865C125.747 36.5647 125.767 36.191 125.816 35.9742C125.865 35.7481 125.954 35.561 126.062 35.4234C126.19 35.2758 126.347 35.1675 126.544 35.0887C126.741 35.0099 126.977 34.9805 127.253 34.9805C127.518 34.9805 127.745 35.0199 127.941 35.0984C128.128 35.1772 128.296 35.3051 128.424 35.4628C128.532 35.6004 128.601 35.7875 128.65 36.0039C128.689 36.2204 128.719 36.5647 128.719 37.0471V37.3718H126.77L126.761 37.48C126.761 37.5194 126.761 37.5685 126.761 37.6473C126.761 38.0508 126.8 38.3361 126.869 38.5034C126.948 38.6708 127.076 38.7493 127.253 38.7493C127.43 38.7493 127.558 38.6805 127.636 38.5525C127.715 38.4149 127.754 38.2082 127.754 37.9129L127.745 37.8932V37.8932ZM126.751 36.683H127.715V36.5056C127.715 36.2107 127.676 36.0136 127.607 35.9054C127.538 35.7972 127.41 35.738 127.233 35.738C127.056 35.738 126.928 35.7972 126.859 35.9154C126.79 36.0333 126.751 36.2304 126.751 36.5157V36.5748L126.761 36.6927L126.751 36.683V36.683ZM124.054 38.9166C123.976 39.1037 123.858 39.2416 123.72 39.3398C123.572 39.4384 123.395 39.4778 123.189 39.4778C122.775 39.4778 122.48 39.3201 122.313 38.9854C122.145 38.6608 122.057 38.0802 122.057 37.2438C122.057 36.3877 122.135 35.7875 122.303 35.4628C122.47 35.1378 122.755 34.9708 123.159 34.9708C123.366 34.9708 123.533 35.0099 123.671 35.0887C123.808 35.1675 123.917 35.2854 123.996 35.4431V33.6617H124.989V39.3495H124.045V38.9069L124.054 38.9166V38.9166ZM123.061 37.165C123.061 37.8244 123.09 38.2375 123.159 38.4149C123.228 38.5823 123.346 38.6708 123.513 38.6708C123.71 38.6708 123.848 38.5919 123.917 38.4443C123.996 38.287 124.025 37.982 124.025 37.5094C124.025 36.7518 123.996 36.2795 123.917 36.0924C123.838 35.9054 123.71 35.8169 123.513 35.8169C123.336 35.8169 123.218 35.8957 123.159 36.053C123.09 36.2107 123.061 36.5845 123.061 37.165ZM118.642 39.3692L118.583 39.2219C118.563 39.1528 118.553 39.0643 118.534 38.956C118.435 39.1331 118.298 39.2613 118.13 39.3495C117.963 39.4384 117.776 39.4875 117.56 39.4875C117.235 39.4875 116.979 39.3792 116.802 39.1528C116.625 38.9363 116.526 38.6314 116.526 38.2476C116.526 37.8932 116.605 37.6176 116.763 37.4011C116.92 37.1947 117.235 36.9779 117.707 36.7715C117.756 36.7518 117.825 36.7224 117.904 36.683C118.288 36.5157 118.484 36.3286 118.484 36.1025C118.484 35.9645 118.445 35.8663 118.376 35.7875C118.298 35.7183 118.199 35.6793 118.052 35.6793C117.875 35.6793 117.737 35.7283 117.648 35.8269C117.57 35.9251 117.52 36.0727 117.52 36.2795V36.368H116.556C116.556 35.8857 116.674 35.5413 116.91 35.3248C117.146 35.1084 117.52 34.9905 118.042 34.9905C118.563 34.9905 118.927 35.0887 119.134 35.2955C119.341 35.4922 119.449 35.8466 119.449 36.3483V38.769C119.449 38.8872 119.459 38.9955 119.479 39.094C119.498 39.1922 119.538 39.2907 119.596 39.3792H118.632L118.642 39.3692V39.3692ZM118.504 37.1356C118.13 37.3227 117.884 37.4897 117.747 37.6373C117.619 37.7849 117.55 37.9623 117.55 38.1591C117.55 38.3461 117.589 38.4934 117.658 38.5823C117.727 38.6708 117.835 38.7102 117.983 38.7102C118.16 38.7102 118.288 38.6314 118.376 38.4837C118.465 38.3361 118.504 38.1096 118.504 37.8046V37.1259V37.1356V37.1356ZM114.076 39.3692V35.0887H115.021V35.7875C115.159 35.5019 115.296 35.2955 115.454 35.1675C115.601 35.0493 115.788 34.9805 116.015 34.9805V36.181L115.906 36.1713H115.768C115.552 36.1713 115.395 36.2304 115.267 36.358C115.139 36.4863 115.08 36.6533 115.08 36.8697V39.3792H114.076V39.3692V39.3692ZM112.226 39.3692V35.0887H113.21V39.3692H112.226ZM112.226 34.5673V33.6814H113.21V34.5673H112.226ZM110.514 37.9032H111.449L111.458 37.9917V38.0705C111.458 38.5626 111.34 38.9166 111.114 39.1431C110.878 39.3692 110.504 39.4875 110.002 39.4875C109.736 39.4875 109.51 39.4581 109.333 39.3889C109.156 39.3201 109.008 39.2219 108.89 39.084C108.752 38.9166 108.654 38.7102 108.595 38.4543C108.536 38.1985 108.506 37.7556 108.506 37.0962C108.506 36.5748 108.536 36.2007 108.585 35.9842C108.634 35.7577 108.713 35.571 108.841 35.4331C108.959 35.2854 109.126 35.1772 109.323 35.0984C109.52 35.0199 109.756 34.9905 110.032 34.9905C110.297 34.9905 110.524 35.0296 110.71 35.1084C110.897 35.1872 111.055 35.3152 111.183 35.4725C111.291 35.6105 111.37 35.7972 111.409 36.0136C111.458 36.2304 111.478 36.5748 111.478 37.0568V37.3814H109.53L109.52 37.4897C109.52 37.5291 109.52 37.5785 109.52 37.657C109.52 38.0605 109.559 38.3461 109.628 38.5131C109.707 38.6805 109.835 38.7593 110.012 38.7593C110.189 38.7593 110.307 38.6905 110.396 38.5626C110.474 38.4246 110.514 38.2182 110.514 37.9229V37.9032V37.9032ZM109.52 36.6927H110.484V36.5157C110.484 36.2204 110.454 36.0236 110.376 35.9154C110.307 35.8072 110.179 35.7481 110.002 35.7481C109.825 35.7481 109.707 35.8072 109.628 35.9251C109.559 36.0433 109.52 36.2401 109.52 36.5253V36.5845L109.53 36.7027L109.52 36.6927V36.6927ZM106.784 39.3692V33.6814H107.768V39.3692H106.784ZM104.954 39.3692V35.0887H105.938V39.3692H104.954ZM104.954 34.5673V33.6814H105.938V34.5673H104.954ZM101.48 37.9523H102.366V38.0705C102.366 38.3164 102.405 38.4934 102.484 38.5919C102.562 38.7002 102.681 38.7493 102.858 38.7493C102.995 38.7493 103.104 38.7102 103.182 38.641C103.261 38.5626 103.301 38.464 103.301 38.3361C103.301 38.1788 103.143 37.9917 102.828 37.7753C102.75 37.7161 102.681 37.6767 102.641 37.6473L102.602 37.6176C101.874 37.1159 101.51 36.6335 101.51 36.1516C101.51 35.7678 101.628 35.4822 101.864 35.2854C102.09 35.0887 102.435 34.9905 102.887 34.9905C103.32 34.9905 103.645 35.0984 103.862 35.3248C104.078 35.5513 104.186 35.8857 104.186 36.3286V36.4171H103.32V36.3286C103.32 36.1218 103.281 35.9742 103.202 35.876C103.123 35.7774 102.995 35.7284 102.828 35.7284C102.7 35.7284 102.602 35.7678 102.533 35.8366C102.454 35.9054 102.425 35.9939 102.425 36.1025C102.425 36.2107 102.454 36.2992 102.523 36.3877C102.582 36.4666 102.73 36.5845 102.956 36.7418C103.005 36.7715 103.084 36.8206 103.182 36.8894C103.901 37.3621 104.255 37.8344 104.255 38.3164C104.255 38.6905 104.137 38.9854 103.891 39.1922C103.645 39.399 103.301 39.4975 102.858 39.4975C102.385 39.4975 102.041 39.3889 101.815 39.1628C101.588 38.9363 101.48 38.5919 101.48 38.1293V38.0508V37.9623V37.9523V37.9523ZM99.9841 39.3792L99.925 39.2316C99.9153 39.1628 99.8956 39.0743 99.8759 38.9657C99.7774 39.1431 99.6398 39.271 99.4724 39.3595C99.3051 39.448 99.1184 39.4975 98.8919 39.4975C98.5672 39.4975 98.3113 39.3889 98.1343 39.1628C97.9569 38.9464 97.8588 38.641 97.8588 38.2572C97.8588 37.9032 97.9372 37.6276 98.0949 37.4112C98.2522 37.2044 98.5672 36.988 99.0395 36.7812C99.0886 36.7615 99.1574 36.7321 99.2363 36.6927C99.6201 36.5253 99.8168 36.3386 99.8168 36.1121C99.8168 35.9742 99.7774 35.876 99.7086 35.7972C99.6301 35.7284 99.5219 35.6889 99.3839 35.6889C99.2069 35.6889 99.0689 35.738 98.9904 35.8366C98.9016 35.9351 98.8625 36.0828 98.8625 36.2892V36.3777H97.8978C97.8978 35.8957 98.0161 35.5513 98.2522 35.3345C98.4884 35.1181 98.8625 35.0002 99.3839 35.0002C99.9057 35.0002 100.27 35.0984 100.476 35.3051C100.683 35.5019 100.791 35.8563 100.791 36.358V38.779C100.791 38.8969 100.801 39.0051 100.821 39.1037C100.85 39.2022 100.88 39.3004 100.929 39.3889H99.9644L99.9841 39.3792V39.3792ZM99.8465 37.1453C99.4724 37.3323 99.2165 37.4997 99.0886 37.6473C98.9607 37.795 98.8919 37.972 98.8919 38.1687C98.8919 38.3558 98.9313 38.5034 98.9904 38.5919C99.0592 38.6805 99.1771 38.7199 99.3248 38.7199C99.5022 38.7199 99.6301 38.641 99.7086 38.4934C99.7971 38.3461 99.8365 38.1196 99.8365 37.8147V37.1356L99.8465 37.1453V37.1453ZM95.4083 39.3792V35.0984H96.353V35.7972C96.4909 35.5119 96.6285 35.3051 96.7858 35.1772C96.9435 35.0593 97.1306 34.9905 97.3567 34.9905V36.191L97.2485 36.181H97.1109C96.9041 36.181 96.7368 36.2401 96.6088 36.368C96.4909 36.4959 96.4218 36.6633 96.4218 36.8797V39.3889H95.418L95.4083 39.3792V39.3792ZM91.3246 39.3792V33.6915H93.0271C93.5091 33.6915 93.8832 33.7997 94.1093 34.0359C94.3455 34.262 94.4637 34.6063 94.4637 35.079C94.4637 35.4528 94.4046 35.7481 94.2863 35.9545C94.1684 36.1612 93.9914 36.2892 93.7649 36.3286C94.0305 36.368 94.2372 36.4959 94.3849 36.7224C94.5325 36.9485 94.6114 37.2535 94.6114 37.6276C94.6114 38.2279 94.4834 38.6805 94.2372 38.9657C93.9814 39.2513 93.5879 39.3889 93.0565 39.3889H91.3246V39.3792V39.3792ZM92.348 35.9939H92.7021C92.968 35.9939 93.1547 35.9351 93.2532 35.8169C93.3518 35.699 93.4105 35.4922 93.4105 35.1772C93.4105 34.9016 93.3614 34.7049 93.2532 34.6063C93.1547 34.5082 92.9579 34.449 92.6727 34.449H92.348V35.9842V35.9939V35.9939ZM92.348 38.5626H92.7906C93.0661 38.5626 93.2532 38.4934 93.3711 38.3558C93.4797 38.2182 93.5385 37.9917 93.5385 37.657C93.5385 37.3126 93.4797 37.0765 93.3614 36.9485C93.2435 36.8206 93.0171 36.7518 92.6824 36.7518H92.3577V38.5626H92.348V38.5626ZM85.6268 37.2338C85.6268 36.368 85.735 35.7774 85.9615 35.4628C86.1876 35.1378 86.5714 34.9805 87.1322 34.9805C87.6934 34.9805 88.0868 35.1378 88.3033 35.4628C88.5298 35.7875 88.638 36.3777 88.638 37.2338C88.638 38.0999 88.5298 38.6905 88.3033 39.0051C88.0868 39.3201 87.6934 39.4778 87.1322 39.4778C86.5714 39.4778 86.1779 39.3201 85.9615 39.0051C85.7446 38.6905 85.6268 38.0899 85.6268 37.2338V37.2338ZM86.6405 37.1847V37.2832C86.6405 37.9426 86.6699 38.3558 86.7387 38.5034C86.8075 38.6511 86.9354 38.7199 87.1225 38.7199C87.3192 38.7199 87.4472 38.6511 87.5163 38.5131C87.5851 38.3755 87.6242 38.0114 87.6242 37.4309V37.2535V37.0077C87.6242 36.4468 87.5851 36.0924 87.5163 35.9448C87.4472 35.7972 87.3192 35.7284 87.1225 35.7284C86.9354 35.7284 86.8075 35.7972 86.7387 35.9251C86.6699 36.053 86.6305 36.3777 86.6305 36.8797V37.175L86.6405 37.1847V37.1847ZM82.7829 34.587H82.4582C82.5073 34.3014 82.5861 34.0849 82.6943 33.9473C82.8026 33.8094 82.9502 33.7309 83.1172 33.7309L83.2355 33.7406L83.3437 33.7603L83.7472 33.8782L83.8357 33.8882L83.9242 33.8979L84.1016 33.8291C84.1507 33.78 84.1801 33.7112 84.1998 33.6223H84.5245C84.4854 33.8979 84.3965 34.1147 84.2786 34.262C84.1604 34.4196 84.0127 34.4885 83.826 34.4885L83.7275 34.4784L83.639 34.4587L83.196 34.3311L83.1369 34.3114L83.0782 34.3014C82.9993 34.3014 82.9305 34.3311 82.881 34.3702C82.832 34.4096 82.7925 34.4784 82.7728 34.5673L82.7829 34.587V34.587ZM84.1113 39.3595L84.0521 39.2119C84.0324 39.1431 84.0228 39.0546 84.0031 38.9464C83.9045 39.1234 83.7669 39.2513 83.5995 39.3398C83.4322 39.4283 83.2455 39.4778 83.019 39.4778C82.6944 39.4778 82.4385 39.3692 82.2611 39.1431C82.0841 38.9266 81.9859 38.6217 81.9859 38.2375C81.9859 37.8835 82.0644 37.6079 82.222 37.3915C82.3794 37.1847 82.6943 36.9682 83.1667 36.7615C83.2158 36.7418 83.2846 36.7124 83.3634 36.673C83.7472 36.5056 83.9439 36.3189 83.9439 36.0924C83.9439 35.9545 83.9045 35.8563 83.8357 35.7774C83.7569 35.7086 83.6487 35.6692 83.511 35.6692C83.334 35.6692 83.196 35.7183 83.1172 35.8169C83.0287 35.9154 82.9893 36.0631 82.9893 36.2695V36.358H82.025C82.025 35.876 82.1432 35.5316 82.3794 35.3152C82.6155 35.0984 82.9893 34.9805 83.511 34.9805C84.0324 34.9805 84.3965 35.079 84.6033 35.2854C84.8101 35.4822 84.9183 35.8366 84.9183 36.3386V38.7593C84.9183 38.8772 84.928 38.9854 84.9477 39.084C84.9674 39.1825 85.0068 39.2807 85.0559 39.3692H84.0916L84.1113 39.3595V39.3595ZM83.9733 37.1259C83.5995 37.3126 83.3437 37.48 83.2158 37.6276C83.0782 37.7753 83.019 37.9523 83.019 38.149C83.019 38.3361 83.0484 38.4837 83.1272 38.5722C83.196 38.6607 83.3043 38.7002 83.4619 38.7002C83.6289 38.7002 83.7569 38.6217 83.8457 38.474C83.9343 38.3264 83.9733 38.0999 83.9733 37.795V37.1159V37.1259V37.1259ZM79.0531 40.5403V41.052C79.2499 41.0915 79.4172 41.1112 79.5552 41.1309C79.6928 41.1506 79.8111 41.1603 79.9193 41.1603C80.2146 41.1603 80.4507 41.0915 80.608 40.9635C80.7754 40.8259 80.8542 40.6389 80.8542 40.3927C80.8542 40.1863 80.7951 40.0189 80.6672 39.891C80.5392 39.7727 80.3522 39.6942 80.116 39.6745V39.3692H79.6928V40.1565H79.7813C79.9092 40.1565 80.0078 40.1762 80.0766 40.2156C80.1357 40.2551 80.1651 40.3142 80.1651 40.383C80.1651 40.4715 80.1357 40.5403 80.0866 40.5898C80.0372 40.6288 79.9583 40.6586 79.8505 40.6586C79.7813 40.6586 79.6928 40.6485 79.5846 40.6389C79.4764 40.6191 79.2993 40.5994 79.0632 40.56L79.0531 40.5403V40.5403ZM81.3462 37.6867L81.3559 37.7849V37.9326C81.3559 38.464 81.2477 38.8578 81.0212 39.1037C80.7951 39.3595 80.4407 39.4778 79.9684 39.4778C79.4369 39.4778 79.0632 39.3201 78.8367 39.0051C78.6299 38.6905 78.5217 38.0899 78.5217 37.2338C78.5217 36.368 78.6299 35.7774 78.8367 35.4628C79.0531 35.1378 79.4273 34.9805 79.9684 34.9805C80.4407 34.9805 80.7851 35.0984 81.0115 35.3345C81.2377 35.571 81.3462 35.9351 81.3462 36.4171V36.5748H80.4013V36.4762C80.4013 36.2204 80.3719 36.0333 80.3031 35.9154C80.2343 35.7972 80.1257 35.7481 79.978 35.7481C79.8308 35.7481 79.7125 35.8072 79.6534 35.9154C79.5846 36.0236 79.5552 36.2107 79.5552 36.4666V37.9426C79.5552 38.2375 79.5846 38.4346 79.6534 38.5525C79.7125 38.6708 79.8308 38.7296 79.978 38.7296C80.1454 38.7296 80.2637 38.6607 80.3228 38.5328C80.3916 38.3952 80.421 38.149 80.421 37.7849V37.6867L81.3559 37.6964L81.3462 37.6867V37.6867ZM77.0062 39.3595L76.9471 39.2119C76.9277 39.1431 76.9177 39.0546 76.898 38.9464C76.7998 39.1234 76.6618 39.2513 76.4945 39.3398C76.3271 39.4283 76.1404 39.4778 75.924 39.4778C75.599 39.4778 75.3435 39.3692 75.1661 39.1431C74.9891 38.9266 74.8905 38.6217 74.8905 38.2375C74.8905 37.8835 74.9694 37.6079 75.1267 37.3915C75.2843 37.1847 75.599 36.9682 76.0713 36.7615C76.1207 36.7418 76.1799 36.7124 76.2684 36.673C76.6522 36.5056 76.8489 36.3189 76.8489 36.0924C76.8489 35.9545 76.8095 35.8563 76.7306 35.7774C76.6522 35.7086 76.5439 35.6692 76.406 35.6692C76.229 35.6692 76.091 35.7183 76.0125 35.8169C75.924 35.9154 75.8846 36.0631 75.8846 36.2695V36.358H74.9203C74.9203 35.876 75.0382 35.5316 75.2743 35.3152C75.5105 35.0984 75.8846 34.9805 76.406 34.9805C76.9277 34.9805 77.2918 35.079 77.4982 35.2854C77.705 35.4822 77.8132 35.8366 77.8132 36.3386V38.7593C77.8132 38.8772 77.8229 38.9854 77.8426 39.084C77.8623 39.1825 77.9017 39.2807 77.9512 39.3692H76.9865L77.0062 39.3595V39.3595ZM76.8686 37.1259C76.4945 37.3126 76.2487 37.48 76.1107 37.6276C75.9831 37.7753 75.914 37.9523 75.914 38.149C75.914 38.3361 75.9534 38.4837 76.0222 38.5722C76.091 38.6607 76.1996 38.7002 76.3569 38.7002C76.5339 38.7002 76.6619 38.6217 76.7407 38.474C76.8292 38.3264 76.8686 38.0999 76.8686 37.795V37.1159V37.1259V37.1259ZM73.1489 39.3595V35.079H74.133V39.3595H73.1489ZM73.1489 34.5573V33.6718H74.133V34.5573H73.1489ZM72.4107 37.6867L72.4207 37.7849V37.9326C72.4207 38.464 72.3025 38.8578 72.086 39.1037C71.8596 39.3595 71.5152 39.4778 71.0429 39.4778C70.5018 39.4778 70.1276 39.3201 69.9209 39.0051C69.7044 38.6905 69.5966 38.0899 69.5966 37.2338C69.5966 36.368 69.7044 35.7774 69.9209 35.4628C70.1377 35.1378 70.5114 34.9805 71.0429 34.9805C71.5152 34.9805 71.8596 35.0984 72.086 35.3345C72.3125 35.571 72.4207 35.9351 72.4207 36.4171V36.5748H71.4758V36.4762C71.4758 36.2204 71.4464 36.0333 71.3776 35.9154C71.3088 35.7972 71.2002 35.7481 71.0529 35.7481C70.9053 35.7481 70.7971 35.8072 70.7279 35.9154C70.6591 36.0236 70.6297 36.2107 70.6297 36.4666V37.9426C70.6297 38.2375 70.6591 38.4346 70.7279 38.5525C70.7971 38.6708 70.9053 38.7296 71.0529 38.7296C71.2199 38.7296 71.3382 38.6607 71.3973 38.5328C71.4661 38.3952 71.4955 38.149 71.4955 37.7849V37.6867L72.4304 37.6964L72.4107 37.6867ZM65.965 37.2241C65.965 36.358 66.0732 35.7678 66.2997 35.4528C66.5162 35.1281 66.91 34.9708 67.4708 34.9708C68.0316 34.9708 68.4251 35.1281 68.6419 35.4528C68.868 35.7774 68.9763 36.368 68.9763 37.2241C68.9763 38.0899 68.868 38.6805 68.6419 38.9955C68.4251 39.3104 68.0316 39.4678 67.4708 39.4678C66.91 39.4678 66.5162 39.3104 66.2997 38.9955C66.0833 38.6805 65.965 38.0802 65.965 37.2241ZM66.9788 37.175V37.2732C66.9788 37.9326 67.0082 38.3461 67.077 38.4934C67.1462 38.641 67.2741 38.7102 67.4611 38.7102C67.6579 38.7102 67.7855 38.641 67.8643 38.5034C67.9335 38.3658 67.9628 38.0014 67.9628 37.4208V37.2438V36.9976C67.9628 36.4368 67.9234 36.0828 67.8546 35.9351C67.7855 35.7875 67.6579 35.7183 67.4611 35.7183C67.2741 35.7183 67.1462 35.7875 67.077 35.9154C67.0082 36.0433 66.9688 36.368 66.9688 36.8697V37.165L66.9788 37.175ZM62.6094 37.9326H63.5049V38.0508C63.5049 38.2967 63.5444 38.474 63.6132 38.5722C63.692 38.6805 63.8103 38.7296 63.9873 38.7296C64.1249 38.7296 64.2331 38.6905 64.3119 38.6217C64.3908 38.5429 64.4302 38.4443 64.4302 38.3164C64.4302 38.1591 64.2725 37.972 63.9479 37.7556C63.869 37.6964 63.8002 37.657 63.7608 37.6276L63.7117 37.5982C62.9835 37.0962 62.6194 36.6138 62.6194 36.1319C62.6194 35.7481 62.7373 35.4628 62.9735 35.2657C63.2097 35.069 63.554 34.9708 63.997 34.9708C64.4302 34.9708 64.7549 35.079 64.9713 35.3051C65.1878 35.5316 65.296 35.8663 65.296 36.3089V36.3974H64.4202V36.3089C64.4202 36.1025 64.3808 35.9545 64.3023 35.8563C64.2234 35.7577 64.0955 35.7086 63.9281 35.7086C63.8103 35.7086 63.7017 35.7481 63.6329 35.8169C63.554 35.8857 63.515 35.9742 63.515 36.0828C63.515 36.191 63.5444 36.2795 63.6132 36.368C63.682 36.4468 63.8199 36.5647 64.0464 36.7224C64.1052 36.7518 64.174 36.8009 64.2725 36.8697C64.991 37.3424 65.3451 37.8147 65.3451 38.2967C65.3451 38.6708 65.2171 38.9657 64.981 39.1725C64.7352 39.3792 64.3908 39.4778 63.9479 39.4778C63.4756 39.4778 63.1312 39.3692 62.9047 39.1431C62.6782 38.9166 62.57 38.5722 62.57 38.1096V38.0311V37.9426L62.6094 37.9326V37.9326ZM59.2832 37.9326H60.169V38.0508C60.169 38.2967 60.2085 38.474 60.2773 38.5722C60.3561 38.6805 60.474 38.7296 60.6514 38.7296C60.789 38.7296 60.8972 38.6905 60.976 38.6217C61.0549 38.5429 61.0939 38.4443 61.0939 38.3164C61.0939 38.1591 60.9366 37.972 60.6216 37.7556C60.5428 37.6964 60.484 37.657 60.4349 37.6276L60.3955 37.5982C59.667 37.0962 59.3029 36.6138 59.3029 36.1319C59.3029 35.7481 59.4212 35.4628 59.6573 35.2657C59.8935 35.069 60.2378 34.9708 60.6808 34.9708C61.1137 34.9708 61.4383 35.079 61.6551 35.3051C61.8716 35.5316 61.9798 35.8663 61.9798 36.3089V36.3974H61.104V36.3089C61.104 36.1025 61.0646 35.9545 60.9857 35.8563C60.9072 35.7577 60.7789 35.7086 60.612 35.7086C60.4937 35.7086 60.3855 35.7481 60.3167 35.8169C60.2378 35.8857 60.2085 35.9742 60.2085 36.0828C60.2085 36.191 60.2479 36.2795 60.3066 36.368C60.3758 36.4468 60.5134 36.5647 60.7496 36.7224C60.7987 36.7518 60.8775 36.8009 60.976 36.8697C61.6945 37.3424 62.0486 37.8147 62.0486 38.2967C62.0486 38.6708 61.9307 38.9657 61.6845 39.1725C61.4383 39.3792 61.0939 39.4778 60.6514 39.4778C60.1791 39.4778 59.8343 39.3692 59.6082 39.1431C59.3817 38.9166 59.2735 38.5722 59.2735 38.1096V38.0311V37.9426L59.2832 37.9326V37.9326ZM54.9339 39.3595L56.2132 33.6718H57.6401L58.9291 39.3595H57.7874L57.5022 37.9326H56.282L56.0064 39.3595H54.9238H54.9339ZM161.036 39.3595L160.986 39.2119C160.966 39.1431 160.947 39.0546 160.937 38.9464C160.839 39.1234 160.701 39.2513 160.534 39.3398C160.366 39.4283 160.179 39.4778 159.963 39.4778C159.638 39.4778 159.382 39.3692 159.205 39.1431C159.028 38.9266 158.93 38.6217 158.93 38.2375C158.93 37.8835 159.008 37.6079 159.166 37.3915C159.323 37.1847 159.638 36.9682 160.11 36.7615C160.16 36.7418 160.219 36.7124 160.307 36.673C160.691 36.5056 160.888 36.3189 160.888 36.0924C160.888 35.9545 160.849 35.8563 160.78 35.7774C160.701 35.7086 160.593 35.6692 160.455 35.6692C160.278 35.6692 160.14 35.7183 160.052 35.8169C159.963 35.9154 159.924 36.0631 159.924 36.2695V36.358H158.959C158.959 35.876 159.067 35.5316 159.313 35.3152C159.549 35.0984 159.924 34.9805 160.445 34.9805C160.966 34.9805 161.331 35.079 161.537 35.2854C161.744 35.4822 161.852 35.8366 161.852 36.3386V38.7593C161.852 38.8772 161.862 38.9854 161.882 39.084C161.901 39.1825 161.941 39.2807 162 39.3692H161.036V39.3595V39.3595ZM160.898 37.1259C160.524 37.3126 160.268 37.48 160.14 37.6276C160.012 37.7753 159.943 37.9523 159.943 38.149C159.943 38.3361 159.973 38.4837 160.052 38.5722C160.12 38.6607 160.229 38.7002 160.386 38.7002C160.553 38.7002 160.691 38.6217 160.77 38.474C160.858 38.3264 160.898 38.0999 160.898 37.795V37.1159V37.1259V37.1259ZM157.217 38.9166C157.129 39.1037 157.021 39.2416 156.873 39.3398C156.725 39.4384 156.548 39.4778 156.342 39.4778C155.928 39.4778 155.643 39.3201 155.466 38.9854C155.298 38.6608 155.21 38.0802 155.21 37.2438C155.21 36.3877 155.289 35.7875 155.456 35.4628C155.623 35.1378 155.909 34.9708 156.312 34.9708C156.519 34.9708 156.686 35.0099 156.824 35.0887C156.961 35.1675 157.07 35.2854 157.149 35.4431V33.6617H158.142V39.3495H157.207V38.9069L157.217 38.9166V38.9166ZM156.223 37.165C156.223 37.8244 156.253 38.2375 156.312 38.4149C156.381 38.5823 156.499 38.6708 156.666 38.6708C156.863 38.6708 157.001 38.5919 157.07 38.4443C157.138 38.287 157.178 37.982 157.178 37.5094C157.178 36.7518 157.138 36.2795 157.07 36.0924C157.001 35.9054 156.863 35.8169 156.666 35.8169C156.499 35.8169 156.371 35.8957 156.312 36.053C156.243 36.2107 156.214 36.5845 156.214 37.165H156.223ZM56.459 37.0765H57.3646L56.9116 34.6952L56.469 37.0765H56.459V37.0765Z" fill="#366045"/>
</svg>
